<?xml version="1.0" encoding="utf-8"?><svg xmlns="http://www.w3.org/2000/svg" xmlns:xlink="http://www.w3.org/1999/xlink"><symbol viewBox="0 0 56 57" fill="none" id="backend" xmlns="http://www.w3.org/2000/svg"><path fill-rule="evenodd" clip-rule="evenodd" d="M23.279 4.837a2.35 2.35 0 0 0-2.35 2.35v3.715a18.774 18.774 0 0 0-4.517 2.613l-3.222-1.86a2.35 2.35 0 0 0-3.21.86l-4.698 8.138a2.35 2.35 0 0 0 .86 3.21l3.22 1.859a18.94 18.94 0 0 0 0 5.218l-3.22 1.86a2.35 2.35 0 0 0-.86 3.209l4.699 8.138a2.35 2.35 0 0 0 3.209.86l3.222-1.86a18.78 18.78 0 0 0 4.518 2.613v3.716a2.35 2.35 0 0 0 2.349 2.35h9.398a2.35 2.35 0 0 0 2.35-2.35V45.76a18.782 18.782 0 0 0 4.517-2.613l3.222 1.86a2.35 2.35 0 0 0 3.21-.86l4.698-8.138a2.35 2.35 0 0 0-.86-3.21l-3.22-1.859a18.937 18.937 0 0 0 0-5.218l3.22-1.86a2.35 2.35 0 0 0 .86-3.209l-4.699-8.138a2.349 2.349 0 0 0-3.21-.86l-3.221 1.86a18.779 18.779 0 0 0-4.518-2.613V7.186a2.35 2.35 0 0 0-2.35-2.35H23.28Zm2.35 7.729v-3.03h4.698v3.03a2.35 2.35 0 0 0 1.68 2.252 14.08 14.08 0 0 1 5.656 3.27 2.35 2.35 0 0 0 2.79.328l2.628-1.517 2.35 4.069-2.626 1.515a2.35 2.35 0 0 0-1.111 2.578c.248 1.047.38 2.142.38 3.27 0 1.128-.132 2.223-.38 3.27a2.35 2.35 0 0 0 1.111 2.578l2.625 1.515-2.35 4.07-2.628-1.518a2.35 2.35 0 0 0-2.79.328 14.074 14.074 0 0 1-5.655 3.27 2.35 2.35 0 0 0-1.68 2.252v3.03H25.63v-3.03a2.35 2.35 0 0 0-1.68-2.252 14.077 14.077 0 0 1-5.656-3.27 2.35 2.35 0 0 0-2.79-.328l-2.628 1.517-2.35-4.069 2.626-1.516a2.35 2.35 0 0 0 1.111-2.577 14.142 14.142 0 0 1-.38-3.27c0-1.128.131-2.223.38-3.27a2.35 2.35 0 0 0-1.111-2.578l-2.625-1.515 2.35-4.07 2.628 1.518c.9.52 2.034.386 2.789-.328a14.08 14.08 0 0 1 5.656-3.27 2.35 2.35 0 0 0 1.68-2.252Zm-2.35 15.765a4.699 4.699 0 1 1 9.398 0 4.699 4.699 0 0 1-9.398 0Zm4.699-9.398a9.398 9.398 0 1 0 0 18.796 9.398 9.398 0 0 0 0-18.796Z" fill="url(#aa)"/><defs><linearGradient id="aa" x1="7.992" y1="4.837" x2="57.296" y2="71.163" gradientUnits="userSpaceOnUse"><stop stop-color="#F47B01"/><stop offset="1" stop-color="#FE0003"/></linearGradient></defs></symbol><symbol viewBox="0 0 24 24" id="burger" xmlns="http://www.w3.org/2000/svg"><path fill="none" d="M3 6h18M3 12h18M3 18h18"/></symbol><symbol viewBox="0 0 28 28" fill="none" id="checed" xmlns="http://www.w3.org/2000/svg"><path d="m3 17.155 8.251 8.643 13.63-23.607" stroke="url(#ca)" stroke-width="4.353" stroke-linecap="round" stroke-linejoin="round"/><defs><linearGradient id="ca" x1="26.59" y1="2.947" x2="6.485" y2="40.61" gradientUnits="userSpaceOnUse"><stop stop-color="#F47B01"/><stop offset="1" stop-color="#FE0003"/></linearGradient></defs></symbol><symbol viewBox="0 0 915 466" fill="none" id="crea" xmlns="http://www.w3.org/2000/svg"><path fill="#fff" d="M407.18 283.475h43.799v156.058H407.18z"/><path fill="#fff" d="M450.235 283.475H575.48v17.327H450.235zM527.542 300.802h47.939v17.327h-47.939zM450.978 300.802h17.541v17.327h-17.541zM440.11 255.898h90.762v13.789H440.11z"/><path fill="#fff" d="M423.611 269.687h141.527v13.789H423.611zM501.201 380.361h74.279v-17.327h-74.279zM527.542 363.034h47.939v-44.905h-47.939zM483.257 394.15h76.368v-13.789h-76.368zM498.281 407.939h44.421v17.327h-44.421zM498.281 425.266h63.08v14.268h-63.08zM483.257 394.15h38.391v13.789h-38.391zM459.006 242.109h56.04v13.789h-56.04zM68.996 435.354H292.43v-29.658H68.997z"/><path fill="#fff" d="M61.726 405.696H341.3v-29.658H61.726zM228.748 376.038h145.819V346.38H228.748z"/><path fill="#fff" d="M258.253 346.381h116.314v-29.658H258.253zM.439 346.381h94.205v-227.57H.439z"/><path fill="#fff" d="M92.048 346.381h37.73v-37.268h-37.73zM94.644 156.079h37.73v-37.268h-37.73zM287.95 316.723h86.617v-29.658H287.95zM235.528 89.153h133.001v29.658H235.528zM287.95 118.811h80.579v37.268H287.95z"/><path fill="#fff" d="M31.267 405.696h133.05V346.38H31.267zM137.857 465.012h120.535v-29.658H137.857zM63.426 29.837h223.433v29.658H63.426z"/><path fill="#fff" d="M56.155 59.495h279.574v29.658H56.155z"/><path fill="#fff" d="M25.696 59.495h148.43v59.316H25.696zM132.286.179h120.535v29.658H132.286zM780.324 255.806h103.189v13.697H780.324zM768.466 269.503h131.032V283.2H768.466zM847.518 283.2h67.344v13.697h-67.344zM756.314 283.2h61.447v13.878h-61.447zM805.541 242.109h55.667v13.697h-55.667zM756.314 297.078h48.019v142.455h-48.019zM866.843 350.739v22.154h-62.51v-22.154zM866.843 296.897h48.019v142.455h-48.019zM608.093 242.109h55.124v197.425h-55.124z"/><path fill="#fff" d="M635.587 269.603v-27.494h100.048v27.494zM634.952 345.1v-26.971H735V345.1zM635.587 439.326v-48.613h100.048v48.613z"/></symbol><symbol viewBox="0 0 52 52" fill="none" id="design" xmlns="http://www.w3.org/2000/svg"><g clip-path="url(#ea)"><path d="m2.86 48.353 16.169-16.17m19.034-6.541L33.26 39.534a1.533 1.533 0 0 1-.37.611c-.17.17-.375.295-.6.365L3.827 49.314c-.256.079-.529.083-.788.013a1.45 1.45 0 0 1-.68-.414c-.185-.2-.315-.45-.374-.72a1.58 1.58 0 0 1 .038-.82l9.243-28.84c.066-.206.175-.396.318-.556.143-.16.317-.285.51-.369l13.131-4.988c.267-.115.56-.145.844-.086.283.058.543.203.748.415l10.892 11.136c.192.2.327.451.39.726.062.275.05.563-.036.831Zm2.44-19.476 5.762 5.994c.433.431.779.948 1.017 1.52a4.84 4.84 0 0 1 .039 3.63 4.7 4.7 0 0 1-.985 1.542c-.424.441-.928.79-1.483 1.025a4.347 4.347 0 0 1-3.49-.04 4.502 4.502 0 0 1-1.46-1.059l-5.764-5.994a4.784 4.784 0 0 1-1.248-3.287 4.776 4.776 0 0 1 1.317-3.258 4.415 4.415 0 0 1 3.132-1.371 4.412 4.412 0 0 1 3.163 1.298ZM24.199 26.803a3.657 3.657 0 0 0-1.187-.852 3.536 3.536 0 0 0-2.827-.026c-.45.191-.858.474-1.201.83a3.817 3.817 0 0 0-.799 1.25 3.937 3.937 0 0 0 .025 2.941c.191.464.47.884.82 1.235a3.582 3.582 0 0 0 2.57 1.068 3.587 3.587 0 0 0 2.554-1.114 3.882 3.882 0 0 0 1.071-2.657 3.887 3.887 0 0 0-1.026-2.675Z" stroke="url(#eb)" stroke-width="4.629" stroke-linecap="round" stroke-linejoin="round"/></g><defs><linearGradient id="eb" x1="-4.818" y1="5.297" x2="46.832" y2="70.073" gradientUnits="userSpaceOnUse"><stop stop-color="#F47B01"/><stop offset="1" stop-color="#FE0003"/></linearGradient><clipPath id="ea"><path fill="#fff" transform="translate(.351 .174)" d="M0 0h51.538v51.538H0z"/></clipPath></defs></symbol><symbol viewBox="0 0 45 43" fill="none" id="frontend" xmlns="http://www.w3.org/2000/svg"><g clip-path="url(#fa)"><path d="M6.167 15.029h0-.002v25.505H41.076V15.03h0l-.002-.001H6.167Zm33.178-8.3H7.897c-.957 0-1.732.775-1.732 1.731v1.683H41.076V8.46c0-.956-.775-1.73-1.731-1.731Z" stroke="url(#fb)" stroke-width="3.455" stroke-linecap="round" stroke-linejoin="round"/></g><defs><linearGradient id="fb" x1="41.722" y1="41.889" x2="5.935" y2="6.968" gradientUnits="userSpaceOnUse"><stop stop-color="#FE0003"/><stop offset="1" stop-color="#F47B01"/></linearGradient><clipPath id="fa"><path fill="#fff" transform="matrix(-1 0 0 1 44.976 .606)" d="M0 0h44.301v42.108H0z"/></clipPath></defs></symbol><symbol fill="none" viewBox="0 0 71 70" id="logo" xmlns="http://www.w3.org/2000/svg"><circle cx="35.505" cy="34.88" r="34.563" fill="url(#ga)"/><path d="M62.391 34.88c0 14.85-12.037 26.887-26.886 26.887-14.85 0-26.887-12.037-26.887-26.887 0-15.17 13.975 13.067 26.543-3.216.641-.83 1.132-1.789 1.662-2.694 6.654-11.352 24.892-9.94 25.568 5.91Z" fill="#fff"/><path d="M62.391 34.88c0 14.85-12.037 26.887-26.886 26.887-14.85 0-26.887-12.037-26.887-26.887 0-15.17 13.975 13.067 26.543-3.216.641-.83 1.132-1.789 1.662-2.694 6.654-11.352 24.892-9.94 25.568 5.91Z" fill="#fff"/><circle cx="48.248" cy="36.581" r="6.224" fill="url(#gb)"/><path d="M20.91 42.35a4.439 4.439 0 1 1-8.816-.742c.59-3.502 4.912-1.104 8.324-.123.302.087.492.313.492.865Z" fill="url(#gc)"/><defs><linearGradient id="ga" x1="37.578" y1=".317" x2="38.42" y2="94.113" gradientUnits="userSpaceOnUse"><stop stop-color="#F47B01"/><stop offset="1" stop-color="#FE0003"/></linearGradient><linearGradient id="gb" x1="48.622" y1="30.357" x2="48.773" y2="47.247" gradientUnits="userSpaceOnUse"><stop stop-color="#F47B01"/><stop offset="1" stop-color="#FE0003"/></linearGradient><linearGradient id="gc" x1="16.738" y1="37.911" x2="16.846" y2="49.957" gradientUnits="userSpaceOnUse"><stop stop-color="#F47B01"/><stop offset="1" stop-color="#FE0003"/></linearGradient></defs></symbol><symbol viewBox="0 0 44 56" fill="none" id="mobile" xmlns="http://www.w3.org/2000/svg"><path d="m42.834 30.061-2.04-1.575v-.55l1.99-1.575c.399-.3.499-.85.25-1.275l-2.116-3.7a.998.998 0 0 0-1.245-.425l-2.365.95c-.199-.125-.274-.175-.473-.275l-.373-2.525a1.026 1.026 0 0 0-.996-.9H31.21c-.497 0-.92.375-.995.85l-.349 2.525c-.074.05-.174.075-.249.125l-.224.15-2.365-.95a.992.992 0 0 0-1.244.425l-2.116 3.7a.977.977 0 0 0 .249 1.275l1.991 1.575v.576l-1.991 1.575a.975.975 0 0 0-.25 1.274l2.117 3.7c.174.325.522.5.871.5a.996.996 0 0 0 .373-.075l2.365-.925c.2.125.299.175.498.275l.373 2.526c.075.5.498.85.996.85h4.257c.498 0 .921-.376.996-.85l.373-2.526c.075-.05.174-.075.249-.125l.224-.15 2.365.95a.992.992 0 0 0 1.245-.425l2.115-3.7a.979.979 0 0 0-.248-1.274Zm-9.484 1.9a3.737 3.737 0 0 1-3.734-3.75 3.737 3.737 0 0 1 3.734-3.75 3.737 3.737 0 0 1 3.734 3.75 3.737 3.737 0 0 1-3.734 3.75Zm-2.49 11.25H5.969v-30H30.86v2.5h4.979v-10c0-2.75-2.24-5-4.98-5H5.969c-2.738 0-4.979 2.25-4.979 5v45c0 2.75 2.24 5 4.979 5H30.86c2.738 0 4.979-2.25 4.979-5v-10h-4.98v2.5ZM5.969 5.712H30.86v2.5H5.968v-2.5Zm24.893 45H5.968v-2.5H30.86v2.5Z" fill="url(#ha)"/><defs><linearGradient id="ha" x1="-2.283" y1=".711" x2="47.409" y2="65.219" gradientUnits="userSpaceOnUse"><stop stop-color="#F47B01"/><stop offset="1" stop-color="#FE0003"/></linearGradient></defs></symbol><symbol viewBox="0 0 50 49" fill="none" id="py" xmlns="http://www.w3.org/2000/svg"><path d="M39.925 14.5c1.582 0 3.099.618 4.218 1.716a5.802 5.802 0 0 1 1.746 4.14v7.74c0 .769-.154 1.53-.454 2.24-.3.71-.739 1.356-1.292 1.9a5.975 5.975 0 0 1-1.935 1.27c-.724.294-1.5.445-2.283.445h-14.89c0 .799.667 1.966 1.48 1.966h8.947v3.44a5.802 5.802 0 0 1-1.747 4.14 6.02 6.02 0 0 1-4.217 1.715h-8.926a6.02 6.02 0 0 1-4.217-1.715 5.802 5.802 0 0 1-1.748-4.14v-7.678c0-.768.155-1.529.455-2.238.3-.71.74-1.354 1.294-1.896a5.952 5.952 0 0 1 1.935-1.263 6.04 6.04 0 0 1 2.28-.439h10.95a6.04 6.04 0 0 0 2.279-.446 5.953 5.953 0 0 0 1.93-1.27c.553-.544.99-1.19 1.288-1.9a5.74 5.74 0 0 0 .446-2.24v-5.486h2.461ZM31 38.64c-.834 0-1.501.614-1.501 1.822 0 1.208.667 1.454 1.501 1.454a1.505 1.505 0 0 0 1.047-.426 1.45 1.45 0 0 0 .434-1.028c0-1.208-.667-1.822-1.48-1.822Zm-20.854-3.665a6.02 6.02 0 0 1-4.218-1.715 5.802 5.802 0 0 1-1.747-4.14v-7.74c0-.769.154-1.53.454-2.24.3-.711.74-1.357 1.293-1.9a6.021 6.021 0 0 1 4.218-1.716h14.89c0-.798-.668-1.965-1.48-1.965h-8.947v-3.44c0-1.553.628-3.042 1.747-4.14a6.02 6.02 0 0 1 4.217-1.716h8.926a6.06 6.06 0 0 1 2.282.446 5.972 5.972 0 0 1 1.935 1.27 5.85 5.85 0 0 1 1.293 1.9c.3.71.454 1.471.454 2.24v7.678c0 .768-.154 1.529-.454 2.238-.3.71-.74 1.353-1.294 1.895a5.953 5.953 0 0 1-1.935 1.264 6.04 6.04 0 0 1-2.281.438H18.549a6.04 6.04 0 0 0-2.28.446 5.953 5.953 0 0 0-1.93 1.27 5.829 5.829 0 0 0-1.287 1.9 5.742 5.742 0 0 0-.447 2.24v5.487h-2.46Zm8.925-24.14c.835 0 1.502-.614 1.502-1.822 0-1.207-.667-1.453-1.502-1.453-.813 0-1.48.246-1.48 1.453 0 1.209.667 1.823 1.48 1.823Z" fill="url(#ia)"/><defs><linearGradient id="ia" x1="4.18" y1="10.64" x2="45.889" y2="53.034" gradientUnits="userSpaceOnUse"><stop stop-color="#F47B01"/><stop offset="1" stop-color="#FE0003"/></linearGradient></defs></symbol><symbol viewBox="0 0 15 27" fill="none" id="rawLeft" xmlns="http://www.w3.org/2000/svg"><path d="M12.682 1.939 2.46 12.765l10.222 11.557"/></symbol><symbol viewBox="0 0 15 27" fill="none" id="rawRight" xmlns="http://www.w3.org/2000/svg"><path d="M2.318 1.939 12.54 12.765 2.318 24.322"/></symbol><symbol viewBox="0 0 926 587" fill="none" id="rectangleBg" xmlns="http://www.w3.org/2000/svg"><path fill="#FF7701" d="M1164.12.098H326.434V587h837.686z"/><path fill="#FF7701" d="M391.641.098H326.44V65.3h65.201z"/><path fill="#FFD43F" d="M391.641 65.3H326.44v65.2h65.201z"/><path fill="#FE0003" d="M391.641 130.501H326.44v65.201h65.201z"/><path fill="#FFD341" d="M391.641 195.702H326.44v65.201h65.201z"/><path fill="#FD4B01" d="M391.641 260.903H326.44v65.201h65.201z"/><path fill="#FFD43F" d="M391.641 326.104H326.44v65.201h65.201z"/><path fill="#FFD341" d="M391.641 391.305H326.44v65.201h65.201z"/><path fill="#F47B01" d="M391.641 456.507H326.44v65.201h65.201z"/><path fill="#FFD43F" d="M391.641 521.708H326.44v65.201h65.201z"/><path fill="#FFD341" d="M326.439.19h-65.201v65.2h65.201z"/><path fill="#FF9A00" d="M326.439 65.39h-65.201v65.201h65.201z"/><path fill="#F47B01" d="M326.439 130.592h-65.201v65.201h65.201z"/><path fill="#fff" d="M326.439 195.793h-65.201v65.201h65.201z"/><path fill="#FF9A00" d="M326.439 260.994h-65.201v65.201h65.201z"/><path fill="#F47B01" d="M326.439 326.195h-65.201v65.201h65.201z"/><path fill="#FFD43F" d="M326.439 391.396h-65.201v65.201h65.201z"/><path fill="#FE6600" d="M326.439 456.597h-65.201v65.201h65.201z"/><path fill="#fff" d="M326.439 521.799h-65.201V587h65.201zM261.238.19h-65.201v65.2h65.201z"/><path fill="#FFD43F" d="M261.238 65.39h-65.201v65.201h65.201z"/><path fill="#F47B01" d="M261.238 130.592h-65.201v65.201h65.201z"/><path fill="#FF9A00" d="M261.238 195.793h-65.201v65.201h65.201z"/><path fill="#FFD43F" d="M261.238 260.994h-65.201v65.201h65.201z"/><path fill="#F47B01" d="M261.238 326.195h-65.201v65.201h65.201z"/><path fill="#FF9A00" d="M261.238 391.396h-65.201v65.201h65.201z"/><path fill="#FFD43F" d="M261.238 456.597h-65.201v65.201h65.201zM261.238 521.799h-65.201V587h65.201z"/><path fill="#FF9A00" d="M196.036.19h-65.201v65.2h65.201z"/><path fill="#F9FFB3" d="M196.036 65.39h-65.201v65.201h65.201z"/><path fill="#FDFDFD" d="M196.036 130.592h-65.201v65.201h65.201z"/><path fill="#FFD43F" d="M196.036 195.793h-65.201v65.201h65.201z"/><path fill="#FDFDFD" d="M196.036 326.195h-65.201v65.201h65.201z"/><path fill="#FFD43F" d="M196.036 391.396h-65.201v65.201h65.201z"/><path fill="#F9FFB3" d="M196.036 456.597h-65.201v65.201h65.201zM130.835 65.39H65.634v65.201h65.201z"/><path fill="#FFD43F" d="M130.835 130.592H65.634v65.201h65.201z"/><path fill="#F9FFB3" d="M130.835 195.793H65.634v65.201h65.201z"/><path fill="#FDFDFD" d="M130.835 260.994H65.634v65.201h65.201zM130.835 391.396H65.634v65.201h65.201z"/><path fill="#FFD43F" d="M130.835 456.597H65.634v65.201h65.201z"/><path fill="#F9FFB3" d="M130.835 521.799H65.634V587h65.201z"/><path fill="#FDFDFD" d="M65.634.19H.433v65.2h65.2zM65.634 65.39H.433v65.201h65.2z"/><path fill="#F9FFB3" d="M65.634 130.592H.433v65.201h65.2z"/><path fill="#FDFDFD" d="M65.634 195.793H.433v65.201h65.2z"/><path fill="#F9FFB3" d="M65.634 326.195H.433v65.201h65.2zM65.634 391.396H.433v65.201h65.2z"/><path fill="#FDFDFD" d="M65.634 521.799H.433V587h65.2z"/><path fill="#FD4B01" d="M652.445.098h-65.201V65.3h65.201z"/><path fill="#F47B01" d="M652.445 65.3h-65.201v65.2h65.201z"/><path fill="#FE0003" d="M652.445 130.501h-65.201v65.201h65.201zM652.445 326.104h-65.201v65.201h65.201zM652.445 456.507h-65.201v65.201h65.201z"/><path fill="#F47B01" d="M652.445 521.708h-65.201v65.201h65.201zM587.244.19h-65.201v65.2h65.201zM587.244 65.39h-65.201v65.201h65.201zM587.244 130.592h-65.201v65.201h65.201z"/><path fill="#FE0003" d="M587.244 195.793h-65.201v65.201h65.201z"/><path fill="#F47B01" d="M587.244 260.994h-65.201v65.201h65.201z"/><path fill="#F47B01" d="M587.244 326.195h-65.201v65.201h65.201z"/><path fill="#FE6600" d="M587.244 391.396h-65.201v65.201h65.201z"/><path fill="#F47B01" d="M587.244 456.597h-65.201v65.201h65.201z"/><path fill="#FD4B01" d="M587.244 521.799h-65.201V587h65.201z"/><path fill="#F47B01" d="M522.043 65.39h-65.201v65.201h65.201z"/><path fill="#FE6600" d="M522.043 130.592h-65.201v65.201h65.201z"/><path fill="#FD4B01" d="M522.043 195.793h-65.201v65.201h65.201z"/><path fill="#F47B01" d="M522.043 260.994h-65.201v65.201h65.201z"/><path fill="#FFD43F" d="M522.043 326.195h-65.201v65.201h65.201z"/><path fill="#FE6600" d="M522.043 391.396h-65.201v65.201h65.201z"/><path fill="#F47B01" d="M522.043 456.597h-65.201v65.201h65.201z"/><path fill="#FE0003" d="M522.043 521.799h-65.201V587h65.201z"/><path fill="#FFD43F" d="M456.842.19h-65.201v65.2h65.201z"/><path fill="#FF9A00" d="M456.842 65.39h-65.201v65.201h65.201z"/><path fill="#F47B01" d="M456.842 130.592h-65.201v65.201h65.201z"/><path fill="#FE6600" d="M456.842 195.793h-65.201v65.201h65.201z"/><path fill="#FFD341" d="M456.842 260.994h-65.201v65.201h65.201z"/><path fill="#FE0003" d="M456.842 326.195h-65.201v65.201h65.201z"/><path fill="#FD4B01" d="M456.842 391.396h-65.201v65.201h65.201z"/><path fill="#FFD341" d="M456.842 456.597h-65.201v65.201h65.201z"/><path fill="#FF9A00" d="M456.842 521.799h-65.201V587h65.201z"/></symbol></svg>