<?xml version="1.0" encoding="utf-8"?><svg xmlns="http://www.w3.org/2000/svg" xmlns:xlink="http://www.w3.org/1999/xlink"><symbol viewBox="0 0 56 57" fill="none" id="backend" xmlns="http://www.w3.org/2000/svg"><path fill-rule="evenodd" clip-rule="evenodd" d="M23.279 4.837a2.35 2.35 0 0 0-2.35 2.35v3.715a18.774 18.774 0 0 0-4.517 2.613l-3.222-1.86a2.35 2.35 0 0 0-3.21.86l-4.698 8.138a2.35 2.35 0 0 0 .86 3.21l3.22 1.859a18.94 18.94 0 0 0 0 5.218l-3.22 1.86a2.35 2.35 0 0 0-.86 3.209l4.699 8.138a2.35 2.35 0 0 0 3.209.86l3.222-1.86a18.78 18.78 0 0 0 4.518 2.613v3.716a2.35 2.35 0 0 0 2.349 2.35h9.398a2.35 2.35 0 0 0 2.35-2.35V45.76a18.782 18.782 0 0 0 4.517-2.613l3.222 1.86a2.35 2.35 0 0 0 3.21-.86l4.698-8.138a2.35 2.35 0 0 0-.86-3.21l-3.22-1.859a18.937 18.937 0 0 0 0-5.218l3.22-1.86a2.35 2.35 0 0 0 .86-3.209l-4.699-8.138a2.349 2.349 0 0 0-3.21-.86l-3.221 1.86a18.779 18.779 0 0 0-4.518-2.613V7.186a2.35 2.35 0 0 0-2.35-2.35H23.28Zm2.35 7.729v-3.03h4.698v3.03a2.35 2.35 0 0 0 1.68 2.252 14.08 14.08 0 0 1 5.656 3.27 2.35 2.35 0 0 0 2.79.328l2.628-1.517 2.35 4.069-2.626 1.515a2.35 2.35 0 0 0-1.111 2.578c.248 1.047.38 2.142.38 3.27 0 1.128-.132 2.223-.38 3.27a2.35 2.35 0 0 0 1.111 2.578l2.625 1.515-2.35 4.07-2.628-1.518a2.35 2.35 0 0 0-2.79.328 14.074 14.074 0 0 1-5.655 3.27 2.35 2.35 0 0 0-1.68 2.252v3.03H25.63v-3.03a2.35 2.35 0 0 0-1.68-2.252 14.077 14.077 0 0 1-5.656-3.27 2.35 2.35 0 0 0-2.79-.328l-2.628 1.517-2.35-4.069 2.626-1.516a2.35 2.35 0 0 0 1.111-2.577 14.142 14.142 0 0 1-.38-3.27c0-1.128.131-2.223.38-3.27a2.35 2.35 0 0 0-1.111-2.578l-2.625-1.515 2.35-4.07 2.628 1.518c.9.52 2.034.386 2.789-.328a14.08 14.08 0 0 1 5.656-3.27 2.35 2.35 0 0 0 1.68-2.252Zm-2.35 15.765a4.699 4.699 0 1 1 9.398 0 4.699 4.699 0 0 1-9.398 0Zm4.699-9.398a9.398 9.398 0 1 0 0 18.796 9.398 9.398 0 0 0 0-18.796Z" fill="url(#aa)"/><defs><linearGradient id="aa" x1="7.992" y1="4.837" x2="57.296" y2="71.163" gradientUnits="userSpaceOnUse"><stop stop-color="#F47B01"/><stop offset="1" stop-color="#FE0003"/></linearGradient></defs></symbol><symbol viewBox="0 0 24 24" id="burger" xmlns="http://www.w3.org/2000/svg"><path fill="none" d="M3 6h18M3 12h18M3 18h18"/></symbol><symbol viewBox="0 0 28 28" fill="none" id="checked" xmlns="http://www.w3.org/2000/svg"><path d="m3 17.155 8.251 8.643 13.63-23.607" stroke="url(#ca)" stroke-width="4.353" stroke-linecap="round" stroke-linejoin="round"/><defs><linearGradient id="ca" x1="26.59" y1="2.947" x2="6.485" y2="40.61" gradientUnits="userSpaceOnUse"><stop stop-color="#F47B01"/><stop offset="1" stop-color="#FE0003"/></linearGradient></defs></symbol><symbol viewBox="0 0 24 24" id="close" xmlns="http://www.w3.org/2000/svg"><path fill="currentColor" d="m12 13.4-4.9 4.9q-.275.275-.7.275t-.7-.275-.275-.7.275-.7l4.9-4.9-4.9-4.9q-.275-.275-.275-.7t.275-.7.7-.275.7.275l4.9 4.9 4.9-4.9q.275-.275.7-.275t.7.275.275.7-.275.7L13.4 12l4.9 4.9q.275.275.275.7t-.275.7-.7.275-.7-.275z"/></symbol><symbol viewBox="0 0 916 465" fill="none" id="crea" xmlns="http://www.w3.org/2000/svg"><path fill="#fff" stroke="#fff" d="M407.626 283.38h43.799v156.058h-43.799z"/><path fill="#fff" stroke="#fff" d="M450.682 283.38h125.245v17.327H450.682zM527.988 300.707h47.939v17.327h-47.939zM451.425 300.707h17.541v17.327h-17.541zM440.557 255.802h90.762v13.789h-90.762zM424.057 269.591h141.527v13.789H424.057zM501.648 380.265h74.279v-17.327h-74.279z"/><path fill="#fff" stroke="#fff" d="M527.988 362.938h47.939v-44.905h-47.939zM483.704 394.054h76.368v-13.789h-76.368zM498.728 407.843h44.421v17.327h-44.421zM498.728 425.17h63.08v14.268h-63.08zM483.704 394.054h38.391v13.789h-38.391zM459.453 242.013h56.04v13.789h-56.04zM69.443 435.259h223.433v-29.658H69.443zM62.172 405.601h279.574v-29.658H62.172zM229.195 375.943h145.819v-29.658H229.195z"/><path fill="#fff" stroke="#fff" d="M258.7 346.285h116.314v-29.658H258.7zM.885 346.285H95.09v-227.57H.885z"/><path fill="#fff" stroke="#fff" d="M92.495 346.285h37.729v-37.268h-37.73zM95.09 155.983h37.73v-37.268H95.09zM288.396 316.627h86.617v-29.658h-86.617zM235.975 89.057h133.001v29.658H235.975zM288.396 118.715h80.579v37.268h-80.579z"/><path fill="#fff" stroke="#fff" d="M31.713 405.601h133.05v-59.316H31.713zM138.303 464.916h120.535v-29.658H138.303zM63.872 29.742h223.433V59.4H63.872z"/><path fill="#fff" stroke="#fff" d="M56.602 59.399h279.574v29.658H56.602z"/><path fill="#fff" stroke="#fff" d="M26.143 59.399h148.43v59.316H26.143zM132.732.084h120.535v29.658H132.732zM780.771 255.71H883.96v13.697H780.771zM768.913 269.407h131.032v13.697H768.913zM847.965 283.104h67.344v13.697h-67.344zM756.761 283.104h61.447v13.878h-61.447zM805.988 242.013h55.667v13.697h-55.667zM756.761 296.982h48.019v142.455h-48.019zM867.29 350.644v22.154h-62.51v-22.154zM867.29 296.801h48.019v142.455H867.29zM608.539 242.013h55.124v197.425h-55.124z"/><path fill="#fff" stroke="#fff" d="M636.033 269.507v-27.494h100.048v27.494zM635.398 345.004v-26.971h100.048v26.971zM636.033 439.23v-48.613h100.048v48.613z"/></symbol><symbol viewBox="0 0 52 52" fill="none" id="design" xmlns="http://www.w3.org/2000/svg"><g clip-path="url(#fa)"><path d="m2.86 48.353 16.169-16.17m19.034-6.541L33.26 39.534a1.533 1.533 0 0 1-.37.611c-.17.17-.375.295-.6.365L3.827 49.314c-.256.079-.529.083-.788.013a1.45 1.45 0 0 1-.68-.414c-.185-.2-.315-.45-.374-.72a1.58 1.58 0 0 1 .038-.82l9.243-28.84c.066-.206.175-.396.318-.556.143-.16.317-.285.51-.369l13.131-4.988c.267-.115.56-.145.844-.086.283.058.543.203.748.415l10.892 11.136c.192.2.327.451.39.726.062.275.05.563-.036.831Zm2.44-19.476 5.762 5.994c.433.431.779.948 1.017 1.52a4.84 4.84 0 0 1 .039 3.63 4.7 4.7 0 0 1-.985 1.542c-.424.441-.928.79-1.483 1.025a4.347 4.347 0 0 1-3.49-.04 4.502 4.502 0 0 1-1.46-1.059l-5.764-5.994a4.784 4.784 0 0 1-1.248-3.287 4.776 4.776 0 0 1 1.317-3.258 4.415 4.415 0 0 1 3.132-1.371 4.412 4.412 0 0 1 3.163 1.298ZM24.199 26.803a3.657 3.657 0 0 0-1.187-.852 3.536 3.536 0 0 0-2.827-.026c-.45.191-.858.474-1.201.83a3.817 3.817 0 0 0-.799 1.25 3.937 3.937 0 0 0 .025 2.941c.191.464.47.884.82 1.235a3.582 3.582 0 0 0 2.57 1.068 3.587 3.587 0 0 0 2.554-1.114 3.882 3.882 0 0 0 1.071-2.657 3.887 3.887 0 0 0-1.026-2.675Z" stroke="url(#fb)" stroke-width="4.629" stroke-linecap="round" stroke-linejoin="round"/></g><defs><linearGradient id="fb" x1="-4.818" y1="5.297" x2="46.832" y2="70.073" gradientUnits="userSpaceOnUse"><stop stop-color="#F47B01"/><stop offset="1" stop-color="#FE0003"/></linearGradient><clipPath id="fa"><path fill="#fff" transform="translate(.351 .174)" d="M0 0h51.538v51.538H0z"/></clipPath></defs></symbol><symbol viewBox="0 0 45 43" fill="none" id="frontend" xmlns="http://www.w3.org/2000/svg"><g clip-path="url(#ga)"><path d="M6.167 15.029h0-.002v25.505H41.076V15.03h0l-.002-.001H6.167Zm33.178-8.3H7.897c-.957 0-1.732.775-1.732 1.731v1.683H41.076V8.46c0-.956-.775-1.73-1.731-1.731Z" stroke="url(#gb)" stroke-width="3.455" stroke-linecap="round" stroke-linejoin="round"/></g><defs><linearGradient id="gb" x1="41.722" y1="41.889" x2="5.935" y2="6.968" gradientUnits="userSpaceOnUse"><stop stop-color="#FE0003"/><stop offset="1" stop-color="#F47B01"/></linearGradient><clipPath id="ga"><path fill="#fff" transform="matrix(-1 0 0 1 44.976 .606)" d="M0 0h44.301v42.108H0z"/></clipPath></defs></symbol><symbol fill="none" viewBox="0 0 71 70" id="logo" xmlns="http://www.w3.org/2000/svg"><circle cx="35.505" cy="34.88" r="34.563" fill="url(#ha)"/><path d="M62.391 34.88c0 14.85-12.037 26.887-26.886 26.887-14.85 0-26.887-12.037-26.887-26.887 0-15.17 13.975 13.067 26.543-3.216.641-.83 1.132-1.789 1.662-2.694 6.654-11.352 24.892-9.94 25.568 5.91Z" fill="#fff"/><path d="M62.391 34.88c0 14.85-12.037 26.887-26.886 26.887-14.85 0-26.887-12.037-26.887-26.887 0-15.17 13.975 13.067 26.543-3.216.641-.83 1.132-1.789 1.662-2.694 6.654-11.352 24.892-9.94 25.568 5.91Z" fill="#fff"/><circle cx="48.248" cy="36.581" r="6.224" fill="url(#hb)"/><path d="M20.91 42.35a4.439 4.439 0 1 1-8.816-.742c.59-3.502 4.912-1.104 8.324-.123.302.087.492.313.492.865Z" fill="url(#hc)"/><defs><linearGradient id="ha" x1="37.578" y1=".317" x2="38.42" y2="94.113" gradientUnits="userSpaceOnUse"><stop stop-color="#F47B01"/><stop offset="1" stop-color="#FE0003"/></linearGradient><linearGradient id="hb" x1="48.622" y1="30.357" x2="48.773" y2="47.247" gradientUnits="userSpaceOnUse"><stop stop-color="#F47B01"/><stop offset="1" stop-color="#FE0003"/></linearGradient><linearGradient id="hc" x1="16.738" y1="37.911" x2="16.846" y2="49.957" gradientUnits="userSpaceOnUse"><stop stop-color="#F47B01"/><stop offset="1" stop-color="#FE0003"/></linearGradient></defs></symbol><symbol viewBox="0 0 44 56" fill="none" id="mobile" xmlns="http://www.w3.org/2000/svg"><path d="m42.834 30.061-2.04-1.575v-.55l1.99-1.575c.399-.3.499-.85.25-1.275l-2.116-3.7a.998.998 0 0 0-1.245-.425l-2.365.95c-.199-.125-.274-.175-.473-.275l-.373-2.525a1.026 1.026 0 0 0-.996-.9H31.21c-.497 0-.92.375-.995.85l-.349 2.525c-.074.05-.174.075-.249.125l-.224.15-2.365-.95a.992.992 0 0 0-1.244.425l-2.116 3.7a.977.977 0 0 0 .249 1.275l1.991 1.575v.576l-1.991 1.575a.975.975 0 0 0-.25 1.274l2.117 3.7c.174.325.522.5.871.5a.996.996 0 0 0 .373-.075l2.365-.925c.2.125.299.175.498.275l.373 2.526c.075.5.498.85.996.85h4.257c.498 0 .921-.376.996-.85l.373-2.526c.075-.05.174-.075.249-.125l.224-.15 2.365.95a.992.992 0 0 0 1.245-.425l2.115-3.7a.979.979 0 0 0-.248-1.274Zm-9.484 1.9a3.737 3.737 0 0 1-3.734-3.75 3.737 3.737 0 0 1 3.734-3.75 3.737 3.737 0 0 1 3.734 3.75 3.737 3.737 0 0 1-3.734 3.75Zm-2.49 11.25H5.969v-30H30.86v2.5h4.979v-10c0-2.75-2.24-5-4.98-5H5.969c-2.738 0-4.979 2.25-4.979 5v45c0 2.75 2.24 5 4.979 5H30.86c2.738 0 4.979-2.25 4.979-5v-10h-4.98v2.5ZM5.969 5.712H30.86v2.5H5.968v-2.5Zm24.893 45H5.968v-2.5H30.86v2.5Z" fill="url(#ia)"/><defs><linearGradient id="ia" x1="-2.283" y1=".711" x2="47.409" y2="65.219" gradientUnits="userSpaceOnUse"><stop stop-color="#F47B01"/><stop offset="1" stop-color="#FE0003"/></linearGradient></defs></symbol><symbol viewBox="0 0 50 49" fill="none" id="py" xmlns="http://www.w3.org/2000/svg"><path d="M39.925 14.5c1.582 0 3.099.618 4.218 1.716a5.802 5.802 0 0 1 1.746 4.14v7.74c0 .769-.154 1.53-.454 2.24-.3.71-.739 1.356-1.292 1.9a5.975 5.975 0 0 1-1.935 1.27c-.724.294-1.5.445-2.283.445h-14.89c0 .799.667 1.966 1.48 1.966h8.947v3.44a5.802 5.802 0 0 1-1.747 4.14 6.02 6.02 0 0 1-4.217 1.715h-8.926a6.02 6.02 0 0 1-4.217-1.715 5.802 5.802 0 0 1-1.748-4.14v-7.678c0-.768.155-1.529.455-2.238.3-.71.74-1.354 1.294-1.896a5.952 5.952 0 0 1 1.935-1.263 6.04 6.04 0 0 1 2.28-.439h10.95a6.04 6.04 0 0 0 2.279-.446 5.953 5.953 0 0 0 1.93-1.27c.553-.544.99-1.19 1.288-1.9a5.74 5.74 0 0 0 .446-2.24v-5.486h2.461ZM31 38.64c-.834 0-1.501.614-1.501 1.822 0 1.208.667 1.454 1.501 1.454a1.505 1.505 0 0 0 1.047-.426 1.45 1.45 0 0 0 .434-1.028c0-1.208-.667-1.822-1.48-1.822Zm-20.854-3.665a6.02 6.02 0 0 1-4.218-1.715 5.802 5.802 0 0 1-1.747-4.14v-7.74c0-.769.154-1.53.454-2.24.3-.711.74-1.357 1.293-1.9a6.021 6.021 0 0 1 4.218-1.716h14.89c0-.798-.668-1.965-1.48-1.965h-8.947v-3.44c0-1.553.628-3.042 1.747-4.14a6.02 6.02 0 0 1 4.217-1.716h8.926a6.06 6.06 0 0 1 2.282.446 5.972 5.972 0 0 1 1.935 1.27 5.85 5.85 0 0 1 1.293 1.9c.3.71.454 1.471.454 2.24v7.678c0 .768-.154 1.529-.454 2.238-.3.71-.74 1.353-1.294 1.895a5.953 5.953 0 0 1-1.935 1.264 6.04 6.04 0 0 1-2.281.438H18.549a6.04 6.04 0 0 0-2.28.446 5.953 5.953 0 0 0-1.93 1.27 5.829 5.829 0 0 0-1.287 1.9 5.742 5.742 0 0 0-.447 2.24v5.487h-2.46Zm8.925-24.14c.835 0 1.502-.614 1.502-1.822 0-1.207-.667-1.453-1.502-1.453-.813 0-1.48.246-1.48 1.453 0 1.209.667 1.823 1.48 1.823Z" fill="url(#ja)"/><defs><linearGradient id="ja" x1="4.18" y1="10.64" x2="45.889" y2="53.034" gradientUnits="userSpaceOnUse"><stop stop-color="#F47B01"/><stop offset="1" stop-color="#FE0003"/></linearGradient></defs></symbol><symbol viewBox="0 0 15 27" fill="none" id="rawLeft" xmlns="http://www.w3.org/2000/svg"><path d="M12.682 1.939 2.46 12.765l10.222 11.557"/></symbol><symbol viewBox="0 0 15 27" fill="none" id="rawRight" xmlns="http://www.w3.org/2000/svg"><path d="M2.318 1.939 12.54 12.765 2.318 24.322"/></symbol><symbol viewBox="0 0 1920 580" preserveAspectRatio="xMidYMid slice" fill="none" id="rectangleBg" xmlns="http://www.w3.org/2000/svg"><g clip-path="url(#ma)"><path fill="#fff" d="M0 0h1920v580H0z"/><path fill="#FF7701" d="M2158.54.092h-837.686v586.902h837.686z"/><path fill="#FF7701" d="M1411.59 395.197h-46.257v46.257h46.257z"/><path fill="#FFD43F" d="M1411.59 441.454h-46.257v46.257h46.257z"/><path fill="#FE0003" d="M1411.59 487.711h-46.257v46.257h46.257z"/><path fill="#FFD341" d="M1411.59 533.968h-46.257v46.257h46.257zM1365.34 395.261h-46.257v46.257h46.257z"/><path fill="#FF9A00" d="M1365.34 441.518h-46.257v46.257h46.257z"/><path fill="#F47B01" d="M1365.34 487.775h-46.257v46.257h46.257z"/><path fill="#fff" d="M1365.34 534.032h-46.257v46.257h46.257zM1319.08 395.261h-46.257v46.257h46.257z"/><path fill="#FFD43F" d="M1319.08 441.518h-46.257v46.257h46.257z"/><path fill="#F47B01" d="M1319.08 487.775h-46.257v46.257h46.257z"/><path fill="#FF9A00" d="M1319.08 534.032h-46.257v46.257h46.257zM1272.82 395.261h-46.257v46.257h46.257z"/><path fill="#F9FFB3" d="M1272.82 441.518h-46.257v46.257h46.257z"/><path fill="#FDFDFD" d="M1272.82 487.775h-46.257v46.257h46.257z"/><path fill="#FFD43F" d="M1272.82 534.032h-46.257v46.257h46.257z"/><path fill="#F9FFB3" d="M1226.57 441.518h-46.257v46.257h46.257z"/><path fill="#FFD43F" d="M1226.57 487.775h-46.257v46.257h46.257z"/><path fill="#F9FFB3" d="M1226.57 534.032h-46.257v46.257h46.257zM1134.05 533.903h-46.257v46.257h46.257z"/><path fill="#FDFDFD" d="M1180.31 395.261h-46.257v46.257h46.257z"/><path fill="#FDFDFD" d="M1180.31 441.518h-46.257v46.257h46.257z"/><path fill="#F9FFB3" d="M1180.31 487.775h-46.257v46.257h46.257zM1180.31 395.132h-46.257v46.257h46.257zM1134.05 348.875h-46.257v46.257h46.257zM1087.79 441.389h-46.257v46.257h46.257z"/><path fill="#FDFDFD" d="M1180.31 534.032h-46.257v46.257h46.257z"/><path fill="#FD4B01" d="M1596.62 395.197h-46.257v46.257h46.257z"/><path fill="#F47B01" d="M1596.62 441.454h-46.257v46.257h46.257zM1550.36 395.261h-46.257v46.257h46.257z"/><path fill="#F47B01" d="M1550.36 441.518h-46.257v46.257h46.257zM1550.36 487.775h-46.257v46.257h46.257z"/><path fill="#FE0003" d="M1550.36 534.032h-46.257v46.257h46.257z"/><path fill="#F47B01" d="M1504.11 441.518h-46.257v46.257h46.257z"/><path fill="#FE6600" d="M1504.11 487.775h-46.257v46.257h46.257z"/><path fill="#FD4B01" d="M1504.11 534.032h-46.257v46.257h46.257z"/><path fill="#FFD43F" d="M1457.85 395.261h-46.257v46.257h46.257z"/><path fill="#FF9A00" d="M1457.85 441.518h-46.257v46.257h46.257z"/><path fill="#F47B01" d="M1457.85 487.775h-46.257v46.257h46.257z"/><path fill="#FE6600" d="M1457.85 534.032h-46.257v46.257h46.257z"/><path fill="#FF7701" d="M1411.59-21.18h-46.257v46.258h46.257z"/><path fill="#FFD43F" d="M1411.59 25.077h-46.257v46.257h46.257z"/><path fill="#FE0003" d="M1411.59 71.335h-46.257v46.257h46.257z"/><path fill="#FFD341" d="M1411.59 117.591h-46.257v46.257h46.257z"/><path fill="#FD4B01" d="M1411.59 163.848h-46.257v46.257h46.257z"/><path fill="#FFD43F" d="M1411.59 210.105h-46.257v46.257h46.257z"/><path fill="#FFD341" d="M1411.59 256.362h-46.257v46.257h46.257z"/><path fill="#F47B01" d="M1411.59 302.619h-46.257v46.257h46.257z"/><path fill="#FFD43F" d="M1411.59 348.875h-46.257v46.257h46.257z"/><path fill="#FFD341" d="M1365.34-21.115h-46.257v46.257h46.257z"/><path fill="#FF9A00" d="M1365.34 25.142h-46.257V71.4h46.257z"/><path fill="#F47B01" d="M1365.34 71.399h-46.257v46.257h46.257z"/><path fill="#fff" d="M1365.34 117.656h-46.257v46.257h46.257z"/><path fill="#FF9A00" d="M1365.34 163.912h-46.257v46.257h46.257z"/><path fill="#F47B01" d="M1365.34 210.169h-46.257v46.257h46.257z"/><path fill="#FFD43F" d="M1365.34 256.426h-46.257v46.257h46.257z"/><path fill="#FE6600" d="M1365.34 302.683h-46.257v46.257h46.257z"/><path fill="#fff" d="M1365.34 348.94h-46.257v46.257h46.257zM1319.08-21.115h-46.257v46.257h46.257z"/><path fill="#FFD43F" d="M1319.08 25.142h-46.257V71.4h46.257z"/><path fill="#F47B01" d="M1319.08 71.399h-46.257v46.257h46.257z"/><path fill="#FF9A00" d="M1319.08 117.656h-46.257v46.257h46.257z"/><path fill="#FFD43F" d="M1319.08 163.912h-46.257v46.257h46.257z"/><path fill="#F47B01" d="M1319.08 210.169h-46.257v46.257h46.257z"/><path fill="#FF9A00" d="M1319.08 256.426h-46.257v46.257h46.257z"/><path fill="#FFD43F" d="M1319.08 302.683h-46.257v46.257h46.257zM1319.08 348.94h-46.257v46.257h46.257z"/><path fill="#FF9A00" d="M1272.82-21.115h-46.257v46.257h46.257z"/><path fill="#F9FFB3" d="M1272.82 25.142h-46.257V71.4h46.257z"/><path fill="#FDFDFD" d="M1272.82 71.399h-46.257v46.257h46.257z"/><path fill="#FFD43F" d="M1272.82 117.656h-46.257v46.257h46.257z"/><path fill="#FDFDFD" d="M1272.82 210.169h-46.257v46.257h46.257z"/><path fill="#FFD43F" d="M1272.82 256.426h-46.257v46.257h46.257z"/><path fill="#F9FFB3" d="M1272.82 302.683h-46.257v46.257h46.257zM1226.57 25.142h-46.257V71.4h46.257z"/><path fill="#FFD43F" d="M1226.57 71.399h-46.257v46.257h46.257zM1180.31 163.848h-46.257v46.257h46.257z"/><path fill="#FFD43F" d="M1272.82 71.334h-46.257v46.257h46.257z"/><path fill="#F9FFB3" d="M1226.57 117.656h-46.257v46.257h46.257z"/><path fill="#FDFDFD" d="M1226.57 163.912h-46.257v46.257h46.257zM1226.57 256.426h-46.257v46.257h46.257z"/><path fill="#FFD43F" d="M1226.57 302.683h-46.257v46.257h46.257z"/><path fill="#F9FFB3" d="M1226.57 348.94h-46.257v46.257h46.257z"/><path fill="#FDFDFD" d="M1180.31-21.115h-46.257v46.257h46.257zM1180.31 25.142h-46.257V71.4h46.257z"/><path fill="#F9FFB3" d="M1180.31 71.399h-46.257v46.257h46.257z"/><path fill="#FDFDFD" d="M1180.31 117.656h-46.257v46.257h46.257z"/><path fill="#F9FFB3" d="M1180.31 210.169h-46.257v46.257h46.257zM1180.31 256.426h-46.257v46.257h46.257zM1087.79 156.352h-46.257v46.257h46.257zM1134.05 202.608h-46.257v46.257h46.257z"/><path fill="#FDFDFD" d="M1180.31 348.94h-46.257v46.257h46.257z"/><path fill="#FD4B01" d="M1596.62-21.18h-46.257v46.258h46.257z"/><path fill="#F47B01" d="M1596.62 25.077h-46.257v46.257h46.257z"/><path fill="#FE0003" d="M1596.62 71.335h-46.257v46.257h46.257zM1596.62 302.619h-46.257v46.257h46.257z"/><path fill="#F47B01" d="M1596.62 348.875h-46.257v46.257h46.257zM1550.36-21.115h-46.257v46.257h46.257zM1550.36 25.142h-46.257V71.4h46.257z"/><path fill="#F47B01" d="M1550.36 71.399h-46.257v46.257h46.257z"/><path fill="#FE0003" d="M1550.36 117.656h-46.257v46.257h46.257z"/><path fill="#F47B01" d="M1550.36 163.912h-46.257v46.257h46.257zM1550.36 210.169h-46.257v46.257h46.257z"/><path fill="#FE6600" d="M1550.36 256.426h-46.257v46.257h46.257z"/><path fill="#F47B01" d="M1550.36 302.683h-46.257v46.257h46.257zM1504.11 25.142h-46.257V71.4h46.257z"/><path fill="#FE6600" d="M1504.11 71.399h-46.257v46.257h46.257z"/><path fill="#FD4B01" d="M1504.11 117.656h-46.257v46.257h46.257z"/><path fill="#F47B01" d="M1504.11 163.912h-46.257v46.257h46.257z"/><path fill="#FFD43F" d="M1504.11 210.169h-46.257v46.257h46.257z"/><path fill="#FE6600" d="M1504.11 256.426h-46.257v46.257h46.257z"/><path fill="#F47B01" d="M1504.11 302.683h-46.257v46.257h46.257z"/><path fill="#FE0003" d="M1504.11 348.94h-46.257v46.257h46.257z"/><path fill="#FFD43F" d="M1457.85-21.115h-46.257v46.257h46.257z"/><path fill="#FF9A00" d="M1457.85 25.142h-46.257V71.4h46.257z"/><path fill="#F47B01" d="M1457.85 71.399h-46.257v46.257h46.257z"/><path fill="#FE6600" d="M1457.85 117.656h-46.257v46.257h46.257z"/><path fill="#FFD341" d="M1457.85 163.912h-46.257v46.257h46.257z"/><path fill="#FE0003" d="M1457.85 210.169h-46.257v46.257h46.257z"/><path fill="#FD4B01" d="M1457.85 256.426h-46.257v46.257h46.257z"/><path fill="#FFD341" d="M1457.85 302.683h-46.257v46.257h46.257z"/><path fill="#FF9A00" d="M1457.85 348.94h-46.257v46.257h46.257z"/><g style="mix-blend-mode:multiply"><path fill="#FF7701" d="M1735.39 441.519h-46.257v46.257h46.257z"/><path fill="#FFD43F" d="M1735.39 487.775h-46.257v46.257h46.257z"/><path fill="#FE0003" d="M1735.39 534.032h-46.257v46.257h46.257z"/><path fill="#FFD341" d="M1689.13 441.583h-46.257v46.257h46.257z"/><path fill="#FF9A00" d="M1689.13 487.84h-46.257v46.257h46.257z"/><path fill="#F47B01" d="M1689.13 534.097h-46.257v46.257h46.257z"/><path fill="#fff" d="M1642.88 441.583h-46.257v46.257h46.257z"/><path fill="#FFD43F" d="M1642.88 487.84h-46.257v46.257h46.257z"/><path fill="#F47B01" d="M1642.88 534.097h-46.257v46.257h46.257z"/><path fill="#FF9A00" d="M1596.62 441.583h-46.257v46.257h46.257z"/><path fill="#F9FFB3" d="M1596.62 487.84h-46.257v46.257h46.257z"/><path fill="#FDFDFD" d="M1596.62 534.097h-46.257v46.257h46.257z"/><path fill="#F9FFB3" d="M1550.36 487.84h-46.257v46.257h46.257z"/><path fill="#FFD43F" d="M1550.36 534.097h-46.257v46.257h46.257z"/><path fill="#FDFDFD" d="M1504.11 441.583h-46.257v46.257h46.257z"/><path fill="#FDFDFD" d="M1504.11 487.84h-46.257v46.257h46.257z"/><path fill="#F9FFB3" d="M1504.11 534.097h-46.257v46.257h46.257z"/><path fill="#FD4B01" d="M1920.42 441.519h-46.257v46.257h46.257z"/><path fill="#F47B01" d="M1920.42 487.775h-46.257v46.257h46.257zM1874.16 441.583h-46.257v46.257h46.257zM1874.16 534.097h-46.257v46.257h46.257z"/><path fill="#F47B01" d="M1827.91 487.84h-46.257v46.257h46.257z"/><path fill="#FFD43F" d="M1781.65 441.583h-46.257v46.257h46.257z"/><path fill="#FF9A00" d="M1781.65 487.84h-46.257v46.257h46.257z"/><path fill="#F47B01" d="M1781.65 534.097h-46.257v46.257h46.257z"/></g><g style="mix-blend-mode:multiply"><path fill="#FF7701" d="M1735.39 25.142h-46.257V71.4h46.257z"/><path fill="#FFD43F" d="M1735.39 71.399h-46.257v46.257h46.257z"/><path fill="#FE0003" d="M1735.39 117.656h-46.257v46.257h46.257z"/><path fill="#FFD341" d="M1735.39 163.913h-46.257v46.257h46.257z"/><path fill="#FD4B01" d="M1735.39 210.169h-46.257v46.257h46.257z"/><path fill="#FFD43F" d="M1735.39 256.426h-46.257v46.257h46.257z"/><path fill="#FFD341" d="M1735.39 302.683h-46.257v46.257h46.257z"/><path fill="#F47B01" d="M1735.39 348.94h-46.257v46.257h46.257z"/><path fill="#FFD43F" d="M1735.39 395.197h-46.257v46.257h46.257z"/><path fill="#FFD341" d="M1689.13 25.207h-46.257v46.257h46.257z"/><path fill="#FF9A00" d="M1689.13 71.464h-46.257v46.257h46.257z"/><path fill="#F47B01" d="M1689.13 117.72h-46.257v46.257h46.257z"/><path fill="#fff" d="M1689.13 163.978h-46.257v46.257h46.257z"/><path fill="#FF9A00" d="M1689.13 210.234h-46.257v46.257h46.257z"/><path fill="#F47B01" d="M1689.13 256.491h-46.257v46.257h46.257z"/><path fill="#FFD43F" d="M1689.13 302.748h-46.257v46.257h46.257z"/><path fill="#FE6600" d="M1689.13 349.005h-46.257v46.257h46.257z"/><path fill="#fff" d="M1689.13 395.262h-46.257v46.257h46.257zM1642.88 25.207h-46.257v46.257h46.257z"/><path fill="#FFD43F" d="M1642.88 71.464h-46.257v46.257h46.257z"/><path fill="#F47B01" d="M1642.88 117.72h-46.257v46.257h46.257z"/><path fill="#FF9A00" d="M1642.88 163.978h-46.257v46.257h46.257z"/><path fill="#FFD43F" d="M1642.88 210.234h-46.257v46.257h46.257z"/><path fill="#F47B01" d="M1642.88 256.491h-46.257v46.257h46.257z"/><path fill="#FF9A00" d="M1642.88 302.748h-46.257v46.257h46.257z"/><path fill="#FFD43F" d="M1642.88 349.005h-46.257v46.257h46.257zM1642.88 395.262h-46.257v46.257h46.257z"/><path fill="#FF9A00" d="M1596.62 25.207h-46.257v46.257h46.257z"/><path fill="#F9FFB3" d="M1596.62 71.464h-46.257v46.257h46.257z"/><path fill="#FDFDFD" d="M1596.62 117.72h-46.257v46.257h46.257z"/><path fill="#FFD43F" d="M1596.62 163.978h-46.257v46.257h46.257z"/><path fill="#FDFDFD" d="M1596.62 256.491h-46.257v46.257h46.257z"/><path fill="#FFD43F" d="M1596.62 302.748h-46.257v46.257h46.257z"/><path fill="#F9FFB3" d="M1596.62 349.005h-46.257v46.257h46.257zM1550.36 71.464h-46.257v46.257h46.257z"/><path fill="#FFD43F" d="M1550.36 117.72h-46.257v46.257h46.257z"/><path fill="#F9FFB3" d="M1550.36 163.978h-46.257v46.257h46.257z"/><path fill="#FDFDFD" d="M1550.36 210.234h-46.257v46.257h46.257zM1550.36 302.748h-46.257v46.257h46.257z"/><path fill="#FFD43F" d="M1550.36 349.005h-46.257v46.257h46.257z"/><path fill="#F9FFB3" d="M1550.36 395.262h-46.257v46.257h46.257z"/><path fill="#FDFDFD" d="M1504.11 25.207h-46.257v46.257h46.257zM1504.11 71.464h-46.257v46.257h46.257z"/><path fill="#F9FFB3" d="M1504.11 117.72h-46.257v46.257h46.257z"/><path fill="#FDFDFD" d="M1504.11 163.978h-46.257v46.257h46.257z"/><path fill="#F9FFB3" d="M1504.11 256.491h-46.257v46.257h46.257zM1504.11 302.748h-46.257v46.257h46.257z"/><path fill="#FDFDFD" d="M1504.11 395.262h-46.257v46.257h46.257z"/><path fill="#FD4B01" d="M1920.42 25.142h-46.257V71.4h46.257z"/><path fill="#F47B01" d="M1920.42 71.399h-46.257v46.257h46.257z"/><path fill="#FE0003" d="M1920.42 117.656h-46.257v46.257h46.257zM1920.42 302.812h-46.257v46.257h46.257z"/><path fill="#F47B01" d="M1920.42 348.875h-46.257v46.257h46.257zM1874.16 25.207h-46.257v46.257h46.257zM1874.16 71.464h-46.257v46.257h46.257z"/><path fill="#FE0003" d="M1874.16 163.978h-46.257v46.257h46.257z"/><path fill="#F47B01" d="M1874.16 256.491h-46.257v46.257h46.257zM1920.42 210.169h-46.257v46.257h46.257z"/><path fill="#FE6600" d="M1874.16 302.748h-46.257v46.257h46.257z"/><path fill="#F47B01" d="M1827.91 71.464h-46.257v46.257h46.257z"/><path fill="#FE6600" d="M1827.91 117.72h-46.257v46.257h46.257z"/><path fill="#FD4B01" d="M1827.91 163.978h-46.257v46.257h46.257z"/><path fill="#F47B01" d="M1827.91 210.234h-46.257v46.257h46.257z"/><path fill="#FFD43F" d="M1827.91 256.491h-46.257v46.257h46.257z"/><path fill="#F47B01" d="M1827.91 349.005h-46.257v46.257h46.257z"/><path fill="#FE0003" d="M1827.91 395.262h-46.257v46.257h46.257z"/><path fill="#FFD43F" d="M1781.65 25.207h-46.257v46.257h46.257z"/><path fill="#FF9A00" d="M1781.65 71.464h-46.257v46.257h46.257z"/><path fill="#F47B01" d="M1781.65 117.72h-46.257v46.257h46.257z"/><path fill="#FE6600" d="M1781.65 163.978h-46.257v46.257h46.257z"/><path fill="#FFD341" d="M1781.65 210.234h-46.257v46.257h46.257z"/><path fill="#FE0003" d="M1781.65 256.491h-46.257v46.257h46.257z"/><path fill="#FD4B01" d="M1781.65 302.748h-46.257v46.257h46.257z"/><path fill="#FFD341" d="M1781.65 349.005h-46.257v46.257h46.257z"/><path fill="#FF9A00" d="M1781.65 395.262h-46.257v46.257h46.257z"/></g><path fill="url(#mb)" d="M975.778-.006h944.641v353.171H975.778z"/></g><defs><linearGradient id="mb" x1="1448.1" y1="-.006" x2="1448.1" y2="353.165" gradientUnits="userSpaceOnUse"><stop stop-color="#fff"/><stop offset="1" stop-color="#fff" stop-opacity="0"/></linearGradient><clipPath id="ma"><path fill="#fff" d="M0 0h1920v580H0z"/></clipPath></defs></symbol></svg>