<svg viewBox="0 0 56 57" fill="none" xmlns="http://www.w3.org/2000/svg">
<path fill-rule="evenodd" clip-rule="evenodd" d="M23.279 4.83667C21.9815 4.83667 20.9296 5.88856 20.9296 7.1861V10.9024C19.2961 11.5635 17.7778 12.447 16.4118 13.5147L13.19 11.6546C12.6504 11.343 12.0091 11.2586 11.4072 11.4198C10.8053 11.5811 10.2922 11.9749 9.98064 12.5145L5.28177 20.6532C4.633 21.7769 5.018 23.2138 6.14171 23.8626L9.36234 25.722C9.24367 26.5755 9.18244 27.4467 9.18244 28.331C9.18244 29.2153 9.24367 30.0863 9.36234 30.9401L6.14173 32.7994C5.60209 33.1109 5.20835 33.6241 5.04706 34.226C4.8858 34.8279 4.97021 35.4691 5.28177 36.0087L9.98064 44.1474C10.2922 44.6871 10.8054 45.0808 11.4072 45.2422C12.0091 45.4034 12.6504 45.3191 13.19 45.0075L16.4119 43.1473C17.7778 44.2148 19.2962 45.0985 20.9296 45.7596V49.4759C20.9296 50.7735 21.9815 51.8254 23.279 51.8254H32.6769C33.9742 51.8254 35.0263 50.7735 35.0263 49.4759V45.7596C36.6596 45.0985 38.1781 44.2148 39.544 43.1473L42.7658 45.0075C43.3055 45.3191 43.9466 45.4034 44.5486 45.2422C45.1505 45.0808 45.6636 44.6871 45.9751 44.1476L50.674 36.009C50.9855 35.4693 51.0701 34.8279 50.9087 34.226C50.7475 33.6243 50.3538 33.1109 49.8141 32.7994L46.5935 30.9401C46.7122 30.0865 46.7735 29.2153 46.7735 28.331C46.7735 27.4467 46.7122 26.5755 46.5935 25.722L49.8141 23.8626C50.9379 23.2137 51.3229 21.7768 50.674 20.6531L45.9751 12.5145C45.6636 11.9748 45.1505 11.5811 44.5486 11.4198C43.9466 11.2585 43.3055 11.3429 42.7658 11.6545L39.544 13.5146C38.1781 12.447 36.6596 11.5635 35.0263 10.9024V7.1861C35.0263 5.88856 33.9742 4.83667 32.6769 4.83667H23.279ZM25.6286 12.566V9.53554H30.3274V12.566C30.3274 13.6054 31.0104 14.5213 32.0066 14.8178C34.1471 15.4549 36.0777 16.5885 37.6631 18.0882C38.4179 18.8023 39.5522 18.9356 40.4523 18.416L43.0806 16.8986L45.4301 20.9679L42.805 22.4834C41.9057 23.0026 41.4539 24.0506 41.6938 25.0608C41.9423 26.108 42.0746 27.2026 42.0746 28.331C42.0746 29.4594 41.9423 30.554 41.6938 31.6012C41.4539 32.6114 41.9057 33.6593 42.805 34.1785L45.4301 35.6941L43.0806 39.7634L40.4521 38.2459C39.5522 37.7264 38.4179 37.8596 37.6628 38.5738C36.0777 40.0735 34.1471 41.2071 32.0066 41.844C31.0104 42.1405 30.3274 43.0566 30.3274 44.096V47.1265H25.6286V44.096C25.6286 43.0566 24.9453 42.1405 23.9492 41.844C21.8086 41.2071 19.8782 40.0735 18.2928 38.5738C17.5379 37.8596 16.4035 37.7264 15.5036 38.2459L12.8753 39.7634L10.5258 35.6941L13.1508 34.1785C14.0501 33.6593 14.5018 32.6114 14.262 31.6012C14.0134 30.554 13.8813 29.4594 13.8813 28.331C13.8813 27.2026 14.0134 26.108 14.262 25.0608C14.5018 24.0506 14.05 23.0027 13.1508 22.4835L10.5258 20.968L12.8753 16.8986L15.5036 18.4161C16.4035 18.9357 17.5379 18.8023 18.2928 18.0882C19.8782 16.5885 21.8086 15.4549 23.9492 14.8178C24.9453 14.5213 25.6286 13.6054 25.6286 12.566ZM23.2791 28.331C23.2791 25.7358 25.3828 23.6321 27.978 23.6321C30.5732 23.6321 32.6769 25.7358 32.6769 28.331C32.6769 30.9262 30.5732 33.0299 27.978 33.0299C25.3828 33.0299 23.2791 30.9262 23.2791 28.331ZM27.978 18.9333C22.7877 18.9333 18.5802 23.1408 18.5802 28.331C18.5802 33.5212 22.7877 37.7288 27.978 37.7288C33.1681 37.7288 37.3757 33.5212 37.3757 28.331C37.3757 23.1408 33.1681 18.9333 27.978 18.9333Z" fill="url(#paint0_linear_4_222)"/>
<defs>
<linearGradient id="paint0_linear_4_222" x1="7.99187" y1="4.83667" x2="57.2958" y2="71.1627" gradientUnits="userSpaceOnUse">
<stop stop-color="#F47B01"/>
<stop offset="1" stop-color="#FE0003"/>
</linearGradient>
</defs>
</svg>
