<svg viewBox="0 0 52 52" fill="none" xmlns="http://www.w3.org/2000/svg">
<g clip-path="url(#clip0_1_103)">
<path d="M2.85939 48.3526L19.0286 32.1835M38.0626 25.642L33.2611 39.5338C33.1866 39.7656 33.0596 39.9753 32.8908 40.1453C32.7219 40.3152 32.5162 40.4403 32.291 40.51L3.82704 49.3136C3.5706 49.3928 3.29819 49.3974 3.03945 49.3267C2.7807 49.2561 2.54554 49.113 2.35955 48.913C2.17356 48.7129 2.04387 48.4637 1.9846 48.1923C1.92532 47.9209 1.93873 47.6379 2.02337 47.3739L11.266 18.5339C11.3322 18.3269 11.4405 18.137 11.5835 17.9773C11.7265 17.8177 11.9008 17.6918 12.0947 17.6084L25.225 12.6196C25.4919 12.505 25.7855 12.4751 26.0688 12.5337C26.352 12.5924 26.6122 12.737 26.8166 12.9493L37.7092 24.0851C37.9012 24.2849 38.036 24.5364 38.0985 24.8113C38.1609 25.0863 38.1485 25.3739 38.0626 25.642ZM40.5028 6.16622L46.2648 12.1604C46.6978 12.5913 47.0437 13.1079 47.2822 13.6798C47.5207 14.2517 47.6469 14.8674 47.6535 15.4908C47.6602 16.1141 47.547 16.7326 47.3208 17.3098C47.0945 17.8871 46.7597 18.4115 46.336 18.8523C45.9122 19.2931 45.4081 19.6414 44.8532 19.8768C44.2983 20.1122 43.7038 20.2299 43.1046 20.223C42.5054 20.2161 41.9136 20.0847 41.3638 19.8367C40.8141 19.5886 40.3175 19.2288 39.9032 18.7783L34.1388 12.7841C33.3257 11.9001 32.8778 10.72 32.8908 9.49662C32.9038 8.27321 33.3767 7.10373 34.2083 6.2386C35.04 5.37347 36.1642 4.88146 37.3402 4.86793C38.5162 4.8544 39.653 5.32043 40.5028 6.16622ZM24.1988 26.803C23.8615 26.4397 23.4581 26.15 23.012 25.9506C22.566 25.7513 22.0862 25.6464 21.6008 25.642C21.1153 25.6376 20.6339 25.7338 20.1846 25.9251C19.7352 26.1163 19.327 26.3987 18.9838 26.7558C18.6405 27.1129 18.369 27.5376 18.1852 28.005C18.0013 28.4725 17.9088 28.9733 17.913 29.4783C17.9173 29.9833 18.0181 30.4824 18.2097 30.9464C18.4013 31.4104 18.6799 31.8301 19.0291 32.181C19.7186 32.8738 20.6422 33.2572 21.6008 33.2485C22.5594 33.2398 23.4764 32.8398 24.1543 32.1347C24.8321 31.4295 25.2166 30.4755 25.225 29.4783C25.2333 28.4811 24.8648 27.5203 24.1988 26.803Z" stroke="url(#paint0_linear_1_103)" stroke-width="4.62923" stroke-linecap="round" stroke-linejoin="round"/>
</g>
<defs>
<linearGradient id="paint0_linear_1_103" x1="-4.81823" y1="5.2968" x2="46.8323" y2="70.073" gradientUnits="userSpaceOnUse">
<stop stop-color="#F47B01"/>
<stop offset="1" stop-color="#FE0003"/>
</linearGradient>
<clipPath id="clip0_1_103">
<rect width="51.5375" height="51.5375" fill="white" transform="translate(0.351318 0.173828)"/>
</clipPath>
</defs>
</svg>
