<svg viewBox="0 0 44 56" fill="none" xmlns="http://www.w3.org/2000/svg">
<path d="M42.8345 30.0615L40.7933 28.4864V27.9364L42.7847 26.3614C43.183 26.0614 43.2826 25.5114 43.0337 25.0864L40.9177 21.3864C40.8296 21.2331 40.7025 21.106 40.5494 21.0181C40.3963 20.9303 40.2228 20.8848 40.0465 20.8864C39.922 20.8864 39.7975 20.9114 39.6731 20.9614L37.3082 21.9114C37.1091 21.7864 37.0344 21.7364 36.8353 21.6364L36.4619 19.1114C36.4319 18.866 36.3146 18.6398 36.1316 18.4744C35.9486 18.309 35.7123 18.2156 35.4661 18.2114H31.2094C30.7115 18.2114 30.2884 18.5864 30.2137 19.0614L29.8652 21.5864C29.7905 21.6364 29.6909 21.6614 29.6163 21.7114L29.3922 21.8614L27.0274 20.9114C26.8039 20.8183 26.5543 20.8101 26.3253 20.8883C26.0962 20.9665 25.9033 21.1258 25.7827 21.3364L23.6668 25.0364C23.4179 25.4614 23.5174 26.0114 23.9157 26.3114L25.9072 27.8864V28.4615L23.9157 30.0365C23.7254 30.1811 23.5949 30.3911 23.549 30.6262C23.5031 30.8614 23.545 31.1054 23.6668 31.3115L25.7827 35.0115C25.957 35.3365 26.3055 35.5115 26.654 35.5115C26.7784 35.5115 26.9029 35.4865 27.0274 35.4365L29.3922 34.5115C29.5914 34.6365 29.6909 34.6865 29.8901 34.7865L30.2635 37.3115C30.3382 37.8115 30.7613 38.1615 31.2592 38.1615H35.5159C36.0138 38.1615 36.437 37.7865 36.5117 37.3115L36.885 34.7865C36.9597 34.7365 37.0593 34.7115 37.134 34.6615L37.358 34.5115L39.7229 35.4615C39.9463 35.5546 40.1959 35.5628 40.425 35.4846C40.654 35.4064 40.8469 35.2471 40.9675 35.0365L43.0834 31.3365C43.2052 31.1304 43.2472 30.8864 43.2013 30.6512C43.1553 30.4161 43.0248 30.2061 42.8345 30.0615ZM33.3502 31.9615C31.2841 31.9615 29.6163 30.2865 29.6163 28.2114C29.6163 26.1364 31.2841 24.4614 33.3502 24.4614C35.4164 24.4614 37.0842 26.1364 37.0842 28.2114C37.0842 30.2865 35.4164 31.9615 33.3502 31.9615ZM30.8609 43.2115H5.96776V13.2114H30.8609V15.7114H35.8395V5.71133C35.8395 2.96132 33.5992 0.711304 30.8609 0.711304H5.96776C3.22952 0.711304 0.989136 2.96132 0.989136 5.71133V50.7116C0.989136 53.4616 3.22952 55.7116 5.96776 55.7116H30.8609C33.5992 55.7116 35.8395 53.4616 35.8395 50.7116V40.7115H30.8609V43.2115ZM5.96776 5.71133H30.8609V8.21134H5.96776V5.71133ZM30.8609 50.7116H5.96776V48.2116H30.8609V50.7116Z" fill="url(#paint0_linear_1_91)"/>
<defs>
<linearGradient id="paint0_linear_1_91" x1="-2.2826" y1="0.711303" x2="47.4093" y2="65.2191" gradientUnits="userSpaceOnUse">
<stop stop-color="#F47B01"/>
<stop offset="1" stop-color="#FE0003"/>
</linearGradient>
</defs>
</svg>
