<svg viewBox="0 0 50 49" fill="none" xmlns="http://www.w3.org/2000/svg">
<path d="M39.9251 14.5006C41.5069 14.5006 43.024 15.1176 44.1426 16.2157C45.2611 17.3139 45.8895 18.8033 45.8895 20.3563V28.0956C45.8895 28.8646 45.7352 29.626 45.4355 30.3365C45.1357 31.0469 44.6964 31.6924 44.1426 32.2362C43.5887 32.7799 42.9312 33.2113 42.2076 33.5056C41.4839 33.7998 40.7083 33.9513 39.9251 33.9513H25.0348C25.0348 34.7498 25.7022 35.9168 26.5155 35.9168H35.4622V39.3565C35.4622 40.9095 34.8338 42.399 33.7152 43.4971C32.5967 44.5953 31.0796 45.2122 29.4977 45.2122H20.5719C18.9901 45.2122 17.473 44.5953 16.3545 43.4971C15.2359 42.399 14.6075 40.9095 14.6075 39.3565V31.6786C14.6075 30.9106 14.7619 30.1502 15.0619 29.4409C15.3619 28.7316 15.8016 28.0874 16.3557 27.5453C16.9098 27.0031 17.5675 26.5738 18.291 26.2817C19.0145 25.9897 19.7897 25.8407 20.5719 25.8434H31.5206C32.3029 25.8434 33.0775 25.6918 33.8 25.3973C34.5224 25.1028 35.1786 24.6711 35.7308 24.1271C36.283 23.5831 36.7203 22.9374 37.0178 22.2271C37.3153 21.5168 37.467 20.7558 37.4642 19.9878V14.5006H39.9251ZM30.9993 38.6399C30.1651 38.6399 29.4977 39.2542 29.4977 40.4621C29.4977 41.6701 30.1651 41.9158 30.9993 41.9158C31.1937 41.9158 31.3863 41.8782 31.5659 41.8052C31.7456 41.7321 31.9088 41.625 32.0463 41.49C32.1838 41.3551 32.2928 41.1948 32.3672 41.0184C32.4417 40.8421 32.48 40.653 32.48 40.4621C32.48 39.2542 31.8126 38.6399 30.9993 38.6399ZM10.1446 34.975C8.56274 34.975 7.04567 34.3581 5.92712 33.2599C4.80857 32.1618 4.18018 30.6724 4.18018 29.1193V21.38C4.18018 20.611 4.33445 19.8496 4.63419 19.1391C4.93393 18.4287 5.37327 17.7832 5.92712 17.2394C7.04567 16.1413 8.56274 15.5243 10.1446 15.5243H25.0348C25.0348 14.7258 24.3675 13.5588 23.5542 13.5588H14.6075V10.1191C14.6075 8.56608 15.2359 7.07667 16.3545 5.97852C17.473 4.88036 18.9901 4.26343 20.5719 4.26343H29.4977C30.281 4.26343 31.0566 4.41489 31.7802 4.70916C32.5039 5.00344 33.1614 5.43477 33.7152 5.97852C34.2691 6.52226 34.7084 7.16779 35.0082 7.87823C35.3079 8.58868 35.4622 9.35012 35.4622 10.1191V17.797C35.4622 18.565 35.3078 19.3255 35.0078 20.0348C34.7078 20.7441 34.2681 21.3882 33.714 21.9304C33.1598 22.4725 32.5022 22.9019 31.7787 23.1939C31.0551 23.486 30.28 23.6349 29.4977 23.6322H18.549C17.7668 23.6322 16.9922 23.7838 16.2697 24.0783C15.5472 24.3729 14.8911 24.8045 14.3389 25.3485C13.7867 25.8925 13.3494 26.5382 13.0519 27.2485C12.7544 27.9589 12.6027 28.7199 12.6055 29.4879V34.975H10.1446ZM19.0704 10.8357C19.9046 10.8357 20.5719 10.2215 20.5719 9.01349C20.5719 7.8055 19.9046 7.5598 19.0704 7.5598C18.2571 7.5598 17.5897 7.8055 17.5897 9.01349C17.5897 10.2215 18.2571 10.8357 19.0704 10.8357Z" fill="url(#paint0_linear_1_118)"/>
<defs>
<linearGradient id="paint0_linear_1_118" x1="4.18018" y1="10.6403" x2="45.8895" y2="53.0336" gradientUnits="userSpaceOnUse">
<stop stop-color="#F47B01"/>
<stop offset="1" stop-color="#FE0003"/>
</linearGradient>
</defs>
</svg>
