<svg viewBox="0 0 926 587" fill="none" xmlns="http://www.w3.org/2000/svg">
<rect width="837.686" height="586.902" transform="matrix(-1 0 0 1 1164.12 0.0981445)" fill="#FF7701"/>
<rect width="65.2012" height="65.2012" transform="matrix(-1 0 0 1 391.641 0.0981445)" fill="#FF7701"/>
<rect width="65.2012" height="65.2012" transform="matrix(-1 0 0 1 391.641 65.2993)" fill="#FFD43F"/>
<rect width="65.2012" height="65.2012" transform="matrix(-1 0 0 1 391.641 130.501)" fill="#FE0003"/>
<rect width="65.2012" height="65.2012" transform="matrix(-1 0 0 1 391.641 195.702)" fill="#FFD341"/>
<rect width="65.2012" height="65.2012" transform="matrix(-1 0 0 1 391.641 260.903)" fill="#FD4B01"/>
<rect width="65.2012" height="65.2012" transform="matrix(-1 0 0 1 391.641 326.104)" fill="#FFD43F"/>
<rect width="65.2012" height="65.2012" transform="matrix(-1 0 0 1 391.641 391.305)" fill="#FFD341"/>
<rect width="65.2012" height="65.2012" transform="matrix(-1 0 0 1 391.641 456.507)" fill="#F47B01"/>
<rect width="65.2012" height="65.2012" transform="matrix(-1 0 0 1 391.641 521.708)" fill="#FFD43F"/>
<rect width="65.2012" height="65.2012" transform="matrix(-1 0 0 1 326.439 0.189209)" fill="#FFD341"/>
<rect width="65.2012" height="65.2012" transform="matrix(-1 0 0 1 326.439 65.3904)" fill="#FF9A00"/>
<rect width="65.2012" height="65.2012" transform="matrix(-1 0 0 1 326.439 130.592)" fill="#F47B01"/>
<rect width="65.2012" height="65.2012" transform="matrix(-1 0 0 1 326.439 195.793)" fill="white"/>
<rect width="65.2012" height="65.2012" transform="matrix(-1 0 0 1 326.439 260.994)" fill="#FF9A00"/>
<rect width="65.2012" height="65.2012" transform="matrix(-1 0 0 1 326.439 326.195)" fill="#F47B01"/>
<rect width="65.2012" height="65.2012" transform="matrix(-1 0 0 1 326.439 391.396)" fill="#FFD43F"/>
<rect width="65.2012" height="65.2012" transform="matrix(-1 0 0 1 326.439 456.597)" fill="#FE6600"/>
<rect width="65.2012" height="65.2012" transform="matrix(-1 0 0 1 326.439 521.799)" fill="white"/>
<rect width="65.2012" height="65.2012" transform="matrix(-1 0 0 1 261.238 0.189209)" fill="white"/>
<rect width="65.2012" height="65.2012" transform="matrix(-1 0 0 1 261.238 65.3904)" fill="#FFD43F"/>
<rect width="65.2012" height="65.2012" transform="matrix(-1 0 0 1 261.238 130.592)" fill="#F47B01"/>
<rect width="65.2012" height="65.2012" transform="matrix(-1 0 0 1 261.238 195.793)" fill="#FF9A00"/>
<rect width="65.2012" height="65.2012" transform="matrix(-1 0 0 1 261.238 260.994)" fill="#FFD43F"/>
<rect width="65.2012" height="65.2012" transform="matrix(-1 0 0 1 261.238 326.195)" fill="#F47B01"/>
<rect width="65.2012" height="65.2012" transform="matrix(-1 0 0 1 261.238 391.396)" fill="#FF9A00"/>
<rect width="65.2012" height="65.2012" transform="matrix(-1 0 0 1 261.238 456.597)" fill="#FFD43F"/>
<rect width="65.2012" height="65.2012" transform="matrix(-1 0 0 1 261.238 521.799)" fill="#FFD43F"/>
<rect width="65.2012" height="65.2012" transform="matrix(-1 0 0 1 196.036 0.189209)" fill="#FF9A00"/>
<rect width="65.2012" height="65.2012" transform="matrix(-1 0 0 1 196.036 65.3904)" fill="#F9FFB3"/>
<rect width="65.2012" height="65.2012" transform="matrix(-1 0 0 1 196.036 130.592)" fill="#FDFDFD"/>
<rect width="65.2012" height="65.2012" transform="matrix(-1 0 0 1 196.036 195.793)" fill="#FFD43F"/>
<rect width="65.2012" height="65.2012" transform="matrix(-1 0 0 1 196.036 326.195)" fill="#FDFDFD"/>
<rect width="65.2012" height="65.2012" transform="matrix(-1 0 0 1 196.036 391.396)" fill="#FFD43F"/>
<rect width="65.2012" height="65.2012" transform="matrix(-1 0 0 1 196.036 456.597)" fill="#F9FFB3"/>
<rect width="65.2012" height="65.2012" transform="matrix(-1 0 0 1 130.835 65.3904)" fill="#F9FFB3"/>
<rect width="65.2012" height="65.2012" transform="matrix(-1 0 0 1 130.835 130.592)" fill="#FFD43F"/>
<rect width="65.2012" height="65.2012" transform="matrix(-1 0 0 1 130.835 195.793)" fill="#F9FFB3"/>
<rect width="65.2012" height="65.2012" transform="matrix(-1 0 0 1 130.835 260.994)" fill="#FDFDFD"/>
<rect width="65.2012" height="65.2012" transform="matrix(-1 0 0 1 130.835 391.396)" fill="#FDFDFD"/>
<rect width="65.2012" height="65.2012" transform="matrix(-1 0 0 1 130.835 456.597)" fill="#FFD43F"/>
<rect width="65.2012" height="65.2012" transform="matrix(-1 0 0 1 130.835 521.799)" fill="#F9FFB3"/>
<rect width="65.2012" height="65.2012" transform="matrix(-1 0 0 1 65.6338 0.189209)" fill="#FDFDFD"/>
<rect width="65.2012" height="65.2012" transform="matrix(-1 0 0 1 65.6338 65.3904)" fill="#FDFDFD"/>
<rect width="65.2012" height="65.2012" transform="matrix(-1 0 0 1 65.6338 130.592)" fill="#F9FFB3"/>
<rect width="65.2012" height="65.2012" transform="matrix(-1 0 0 1 65.6338 195.793)" fill="#FDFDFD"/>
<rect width="65.2012" height="65.2012" transform="matrix(-1 0 0 1 65.6338 326.195)" fill="#F9FFB3"/>
<rect width="65.2012" height="65.2012" transform="matrix(-1 0 0 1 65.6338 391.396)" fill="#F9FFB3"/>
<rect width="65.2012" height="65.2012" transform="matrix(-1 0 0 1 65.6338 521.799)" fill="#FDFDFD"/>
<rect width="65.2012" height="65.2012" transform="matrix(-1 0 0 1 652.445 0.0981445)" fill="#FD4B01"/>
<rect width="65.2012" height="65.2012" transform="matrix(-1 0 0 1 652.445 65.2993)" fill="#F47B01"/>
<rect width="65.2012" height="65.2012" transform="matrix(-1 0 0 1 652.445 130.501)" fill="#FE0003"/>
<rect width="65.2012" height="65.2012" transform="matrix(-1 0 0 1 652.445 326.104)" fill="#FE0003"/>
<rect width="65.2012" height="65.2012" transform="matrix(-1 0 0 1 652.445 456.507)" fill="#FE0003"/>
<rect width="65.2012" height="65.2012" transform="matrix(-1 0 0 1 652.445 521.708)" fill="#F47B01"/>
<rect width="65.2012" height="65.2012" transform="matrix(-1 0 0 1 587.244 0.189209)" fill="#F47B01"/>
<rect width="65.2012" height="65.2012" transform="matrix(-1 0 0 1 587.244 65.3904)" fill="#F47B01"/>
<rect width="65.2012" height="65.2012" transform="matrix(-1 0 0 1 587.244 130.592)" fill="#F47B01"/>
<rect width="65.2012" height="65.2012" transform="matrix(-1 0 0 1 587.244 195.793)" fill="#FE0003"/>
<rect width="65.2012" height="65.2012" transform="matrix(-1 0 0 1 587.244 260.994)" fill="#F47B01"/>
<rect width="65.2012" height="65.2012" transform="matrix(-1 0 0 1 587.244 326.195)" fill="#F47B01"/>
<rect width="65.2012" height="65.2012" transform="matrix(-1 0 0 1 587.244 391.396)" fill="#FE6600"/>
<rect width="65.2012" height="65.2012" transform="matrix(-1 0 0 1 587.244 456.597)" fill="#F47B01"/>
<rect width="65.2012" height="65.2012" transform="matrix(-1 0 0 1 587.244 521.799)" fill="#FD4B01"/>
<rect width="65.2012" height="65.2012" transform="matrix(-1 0 0 1 522.043 65.3904)" fill="#F47B01"/>
<rect width="65.2012" height="65.2012" transform="matrix(-1 0 0 1 522.043 130.592)" fill="#FE6600"/>
<rect width="65.2012" height="65.2012" transform="matrix(-1 0 0 1 522.043 195.793)" fill="#FD4B01"/>
<rect width="65.2012" height="65.2012" transform="matrix(-1 0 0 1 522.043 260.994)" fill="#F47B01"/>
<rect width="65.2012" height="65.2012" transform="matrix(-1 0 0 1 522.043 326.195)" fill="#FFD43F"/>
<rect width="65.2012" height="65.2012" transform="matrix(-1 0 0 1 522.043 391.396)" fill="#FE6600"/>
<rect width="65.2012" height="65.2012" transform="matrix(-1 0 0 1 522.043 456.597)" fill="#F47B01"/>
<rect width="65.2012" height="65.2012" transform="matrix(-1 0 0 1 522.043 521.799)" fill="#FE0003"/>
<rect width="65.2012" height="65.2012" transform="matrix(-1 0 0 1 456.842 0.189209)" fill="#FFD43F"/>
<rect width="65.2012" height="65.2012" transform="matrix(-1 0 0 1 456.842 65.3904)" fill="#FF9A00"/>
<rect width="65.2012" height="65.2012" transform="matrix(-1 0 0 1 456.842 130.592)" fill="#F47B01"/>
<rect width="65.2012" height="65.2012" transform="matrix(-1 0 0 1 456.842 195.793)" fill="#FE6600"/>
<rect width="65.2012" height="65.2012" transform="matrix(-1 0 0 1 456.842 260.994)" fill="#FFD341"/>
<rect width="65.2012" height="65.2012" transform="matrix(-1 0 0 1 456.842 326.195)" fill="#FE0003"/>
<rect width="65.2012" height="65.2012" transform="matrix(-1 0 0 1 456.842 391.396)" fill="#FD4B01"/>
<rect width="65.2012" height="65.2012" transform="matrix(-1 0 0 1 456.842 456.597)" fill="#FFD341"/>
<rect width="65.2012" height="65.2012" transform="matrix(-1 0 0 1 456.842 521.799)" fill="#FF9A00"/>
</svg>
