<svg viewBox="0 0 1920 580" preserveAspectRatio="xMidYMid slice" fill="none" xmlns="http://www.w3.org/2000/svg">
<g clip-path="url(#clip0_127_377)">
<rect width="1920" height="580" fill="white"/>
<rect width="837.686" height="586.902" transform="matrix(-1 0 0 1 2158.54 0.0922852)" fill="#FF7701"/>
<rect width="46.2569" height="46.2569" transform="matrix(-1 0 0 1 1411.59 395.197)" fill="#FF7701"/>
<rect width="46.2569" height="46.2569" transform="matrix(-1 0 0 1 1411.59 441.454)" fill="#FFD43F"/>
<rect width="46.2569" height="46.2569" transform="matrix(-1 0 0 1 1411.59 487.711)" fill="#FE0003"/>
<rect width="46.2569" height="46.2569" transform="matrix(-1 0 0 1 1411.59 533.968)" fill="#FFD341"/>
<rect width="46.2569" height="46.2569" transform="matrix(-1 0 0 1 1365.34 395.261)" fill="#FFD341"/>
<rect width="46.2569" height="46.2569" transform="matrix(-1 0 0 1 1365.34 441.518)" fill="#FF9A00"/>
<rect width="46.2569" height="46.2569" transform="matrix(-1 0 0 1 1365.34 487.775)" fill="#F47B01"/>
<rect width="46.2569" height="46.2569" transform="matrix(-1 0 0 1 1365.34 534.032)" fill="white"/>
<rect width="46.2569" height="46.2569" transform="matrix(-1 0 0 1 1319.08 395.261)" fill="white"/>
<rect width="46.2569" height="46.2569" transform="matrix(-1 0 0 1 1319.08 441.518)" fill="#FFD43F"/>
<rect width="46.2569" height="46.2569" transform="matrix(-1 0 0 1 1319.08 487.775)" fill="#F47B01"/>
<rect width="46.2569" height="46.2569" transform="matrix(-1 0 0 1 1319.08 534.032)" fill="#FF9A00"/>
<rect width="46.2569" height="46.2569" transform="matrix(-1 0 0 1 1272.82 395.261)" fill="#FF9A00"/>
<rect width="46.2569" height="46.2569" transform="matrix(-1 0 0 1 1272.82 441.518)" fill="#F9FFB3"/>
<rect width="46.2569" height="46.2569" transform="matrix(-1 0 0 1 1272.82 487.775)" fill="#FDFDFD"/>
<rect width="46.2569" height="46.2569" transform="matrix(-1 0 0 1 1272.82 534.032)" fill="#FFD43F"/>
<rect width="46.2569" height="46.2569" transform="matrix(-1 0 0 1 1226.57 441.518)" fill="#F9FFB3"/>
<rect width="46.2569" height="46.2569" transform="matrix(-1 0 0 1 1226.57 487.775)" fill="#FFD43F"/>
<rect width="46.2569" height="46.2569" transform="matrix(-1 0 0 1 1226.57 534.032)" fill="#F9FFB3"/>
<rect width="46.2569" height="46.2569" transform="matrix(-1 0 0 1 1134.05 533.903)" fill="#F9FFB3"/>
<rect width="46.2569" height="46.2569" transform="matrix(-1 0 0 1 1180.31 395.261)" fill="#FDFDFD"/>
<rect width="46.2569" height="46.2569" transform="matrix(-1 0 0 1 1180.31 441.518)" fill="#FDFDFD"/>
<rect width="46.2569" height="46.2569" transform="matrix(-1 0 0 1 1180.31 487.775)" fill="#F9FFB3"/>
<rect width="46.2569" height="46.2569" transform="matrix(-1 0 0 1 1180.31 395.132)" fill="#F9FFB3"/>
<rect width="46.2569" height="46.2569" transform="matrix(-1 0 0 1 1134.05 348.875)" fill="#F9FFB3"/>
<rect width="46.2569" height="46.2569" transform="matrix(-1 0 0 1 1087.79 441.389)" fill="#F9FFB3"/>
<rect width="46.2569" height="46.2569" transform="matrix(-1 0 0 1 1180.31 534.032)" fill="#FDFDFD"/>
<rect width="46.2569" height="46.2569" transform="matrix(-1 0 0 1 1596.62 395.197)" fill="#FD4B01"/>
<rect width="46.2569" height="46.2569" transform="matrix(-1 0 0 1 1596.62 441.454)" fill="#F47B01"/>
<rect width="46.2569" height="46.2569" transform="matrix(-1 0 0 1 1550.36 395.261)" fill="#F47B01"/>
<rect width="46.2569" height="46.2569" transform="matrix(-1 0 0 1 1550.36 441.518)" fill="#F47B01"/>
<rect width="46.2569" height="46.2569" transform="matrix(-1 0 0 1 1550.36 487.775)" fill="#F47B01"/>
<rect width="46.2569" height="46.2569" transform="matrix(-1 0 0 1 1550.36 534.032)" fill="#FE0003"/>
<rect width="46.2569" height="46.2569" transform="matrix(-1 0 0 1 1504.11 441.518)" fill="#F47B01"/>
<rect width="46.2569" height="46.2569" transform="matrix(-1 0 0 1 1504.11 487.775)" fill="#FE6600"/>
<rect width="46.2569" height="46.2569" transform="matrix(-1 0 0 1 1504.11 534.032)" fill="#FD4B01"/>
<rect width="46.2569" height="46.2569" transform="matrix(-1 0 0 1 1457.85 395.261)" fill="#FFD43F"/>
<rect width="46.2569" height="46.2569" transform="matrix(-1 0 0 1 1457.85 441.518)" fill="#FF9A00"/>
<rect width="46.2569" height="46.2569" transform="matrix(-1 0 0 1 1457.85 487.775)" fill="#F47B01"/>
<rect width="46.2569" height="46.2569" transform="matrix(-1 0 0 1 1457.85 534.032)" fill="#FE6600"/>
<rect width="46.2569" height="46.2569" transform="matrix(-1 0 0 1 1411.59 -21.1794)" fill="#FF7701"/>
<rect width="46.2569" height="46.2569" transform="matrix(-1 0 0 1 1411.59 25.0774)" fill="#FFD43F"/>
<rect width="46.2569" height="46.2569" transform="matrix(-1 0 0 1 1411.59 71.3345)" fill="#FE0003"/>
<rect width="46.2569" height="46.2569" transform="matrix(-1 0 0 1 1411.59 117.591)" fill="#FFD341"/>
<rect width="46.2569" height="46.2569" transform="matrix(-1 0 0 1 1411.59 163.848)" fill="#FD4B01"/>
<rect width="46.2569" height="46.2569" transform="matrix(-1 0 0 1 1411.59 210.105)" fill="#FFD43F"/>
<rect width="46.2569" height="46.2569" transform="matrix(-1 0 0 1 1411.59 256.362)" fill="#FFD341"/>
<rect width="46.2569" height="46.2569" transform="matrix(-1 0 0 1 1411.59 302.619)" fill="#F47B01"/>
<rect width="46.2569" height="46.2569" transform="matrix(-1 0 0 1 1411.59 348.875)" fill="#FFD43F"/>
<rect width="46.2569" height="46.2569" transform="matrix(-1 0 0 1 1365.34 -21.1147)" fill="#FFD341"/>
<rect width="46.2569" height="46.2569" transform="matrix(-1 0 0 1 1365.34 25.1421)" fill="#FF9A00"/>
<rect width="46.2569" height="46.2569" transform="matrix(-1 0 0 1 1365.34 71.3989)" fill="#F47B01"/>
<rect width="46.2569" height="46.2569" transform="matrix(-1 0 0 1 1365.34 117.656)" fill="white"/>
<rect width="46.2569" height="46.2569" transform="matrix(-1 0 0 1 1365.34 163.912)" fill="#FF9A00"/>
<rect width="46.2569" height="46.2569" transform="matrix(-1 0 0 1 1365.34 210.169)" fill="#F47B01"/>
<rect width="46.2569" height="46.2569" transform="matrix(-1 0 0 1 1365.34 256.426)" fill="#FFD43F"/>
<rect width="46.2569" height="46.2569" transform="matrix(-1 0 0 1 1365.34 302.683)" fill="#FE6600"/>
<rect width="46.2569" height="46.2569" transform="matrix(-1 0 0 1 1365.34 348.94)" fill="white"/>
<rect width="46.2569" height="46.2569" transform="matrix(-1 0 0 1 1319.08 -21.1147)" fill="white"/>
<rect width="46.2569" height="46.2569" transform="matrix(-1 0 0 1 1319.08 25.1421)" fill="#FFD43F"/>
<rect width="46.2569" height="46.2569" transform="matrix(-1 0 0 1 1319.08 71.3989)" fill="#F47B01"/>
<rect width="46.2569" height="46.2569" transform="matrix(-1 0 0 1 1319.08 117.656)" fill="#FF9A00"/>
<rect width="46.2569" height="46.2569" transform="matrix(-1 0 0 1 1319.08 163.912)" fill="#FFD43F"/>
<rect width="46.2569" height="46.2569" transform="matrix(-1 0 0 1 1319.08 210.169)" fill="#F47B01"/>
<rect width="46.2569" height="46.2569" transform="matrix(-1 0 0 1 1319.08 256.426)" fill="#FF9A00"/>
<rect width="46.2569" height="46.2569" transform="matrix(-1 0 0 1 1319.08 302.683)" fill="#FFD43F"/>
<rect width="46.2569" height="46.2569" transform="matrix(-1 0 0 1 1319.08 348.94)" fill="#FFD43F"/>
<rect width="46.2569" height="46.2569" transform="matrix(-1 0 0 1 1272.82 -21.1147)" fill="#FF9A00"/>
<rect width="46.2569" height="46.2569" transform="matrix(-1 0 0 1 1272.82 25.1421)" fill="#F9FFB3"/>
<rect width="46.2569" height="46.2569" transform="matrix(-1 0 0 1 1272.82 71.3989)" fill="#FDFDFD"/>
<rect width="46.2569" height="46.2569" transform="matrix(-1 0 0 1 1272.82 117.656)" fill="#FFD43F"/>
<rect width="46.2569" height="46.2569" transform="matrix(-1 0 0 1 1272.82 210.169)" fill="#FDFDFD"/>
<rect width="46.2569" height="46.2569" transform="matrix(-1 0 0 1 1272.82 256.426)" fill="#FFD43F"/>
<rect width="46.2569" height="46.2569" transform="matrix(-1 0 0 1 1272.82 302.683)" fill="#F9FFB3"/>
<rect width="46.2569" height="46.2569" transform="matrix(-1 0 0 1 1226.57 25.1421)" fill="#F9FFB3"/>
<rect width="46.2569" height="46.2569" transform="matrix(-1 0 0 1 1226.57 71.3989)" fill="#FFD43F"/>
<rect width="46.2569" height="46.2569" transform="matrix(-1 0 0 1 1180.31 163.848)" fill="#FFD43F"/>
<rect width="46.2569" height="46.2569" transform="matrix(-1 0 0 1 1272.82 71.3342)" fill="#FFD43F"/>
<rect width="46.2569" height="46.2569" transform="matrix(-1 0 0 1 1226.57 117.656)" fill="#F9FFB3"/>
<rect width="46.2569" height="46.2569" transform="matrix(-1 0 0 1 1226.57 163.912)" fill="#FDFDFD"/>
<rect width="46.2569" height="46.2569" transform="matrix(-1 0 0 1 1226.57 256.426)" fill="#FDFDFD"/>
<rect width="46.2569" height="46.2569" transform="matrix(-1 0 0 1 1226.57 302.683)" fill="#FFD43F"/>
<rect width="46.2569" height="46.2569" transform="matrix(-1 0 0 1 1226.57 348.94)" fill="#F9FFB3"/>
<rect width="46.2569" height="46.2569" transform="matrix(-1 0 0 1 1180.31 -21.1147)" fill="#FDFDFD"/>
<rect width="46.2569" height="46.2569" transform="matrix(-1 0 0 1 1180.31 25.1421)" fill="#FDFDFD"/>
<rect width="46.2569" height="46.2569" transform="matrix(-1 0 0 1 1180.31 71.3989)" fill="#F9FFB3"/>
<rect width="46.2569" height="46.2569" transform="matrix(-1 0 0 1 1180.31 117.656)" fill="#FDFDFD"/>
<rect width="46.2569" height="46.2569" transform="matrix(-1 0 0 1 1180.31 210.169)" fill="#F9FFB3"/>
<rect width="46.2569" height="46.2569" transform="matrix(-1 0 0 1 1180.31 256.426)" fill="#F9FFB3"/>
<rect width="46.2569" height="46.2569" transform="matrix(-1 0 0 1 1087.79 156.352)" fill="#F9FFB3"/>
<rect width="46.2569" height="46.2569" transform="matrix(-1 0 0 1 1134.05 202.608)" fill="#F9FFB3"/>
<rect width="46.2569" height="46.2569" transform="matrix(-1 0 0 1 1180.31 348.94)" fill="#FDFDFD"/>
<rect width="46.2569" height="46.2569" transform="matrix(-1 0 0 1 1596.62 -21.1794)" fill="#FD4B01"/>
<rect width="46.2569" height="46.2569" transform="matrix(-1 0 0 1 1596.62 25.0774)" fill="#F47B01"/>
<rect width="46.2569" height="46.2569" transform="matrix(-1 0 0 1 1596.62 71.3345)" fill="#FE0003"/>
<rect width="46.2569" height="46.2569" transform="matrix(-1 0 0 1 1596.62 302.619)" fill="#FE0003"/>
<rect width="46.2569" height="46.2569" transform="matrix(-1 0 0 1 1596.62 348.875)" fill="#F47B01"/>
<rect width="46.2569" height="46.2569" transform="matrix(-1 0 0 1 1550.36 -21.1147)" fill="#F47B01"/>
<rect width="46.2569" height="46.2569" transform="matrix(-1 0 0 1 1550.36 25.1421)" fill="#F47B01"/>
<rect width="46.2569" height="46.2569" transform="matrix(-1 0 0 1 1550.36 71.3989)" fill="#F47B01"/>
<rect width="46.2569" height="46.2569" transform="matrix(-1 0 0 1 1550.36 117.656)" fill="#FE0003"/>
<rect width="46.2569" height="46.2569" transform="matrix(-1 0 0 1 1550.36 163.912)" fill="#F47B01"/>
<rect width="46.2569" height="46.2569" transform="matrix(-1 0 0 1 1550.36 210.169)" fill="#F47B01"/>
<rect width="46.2569" height="46.2569" transform="matrix(-1 0 0 1 1550.36 256.426)" fill="#FE6600"/>
<rect width="46.2569" height="46.2569" transform="matrix(-1 0 0 1 1550.36 302.683)" fill="#F47B01"/>
<rect width="46.2569" height="46.2569" transform="matrix(-1 0 0 1 1504.11 25.1421)" fill="#F47B01"/>
<rect width="46.2569" height="46.2569" transform="matrix(-1 0 0 1 1504.11 71.3989)" fill="#FE6600"/>
<rect width="46.2569" height="46.2569" transform="matrix(-1 0 0 1 1504.11 117.656)" fill="#FD4B01"/>
<rect width="46.2569" height="46.2569" transform="matrix(-1 0 0 1 1504.11 163.912)" fill="#F47B01"/>
<rect width="46.2569" height="46.2569" transform="matrix(-1 0 0 1 1504.11 210.169)" fill="#FFD43F"/>
<rect width="46.2569" height="46.2569" transform="matrix(-1 0 0 1 1504.11 256.426)" fill="#FE6600"/>
<rect width="46.2569" height="46.2569" transform="matrix(-1 0 0 1 1504.11 302.683)" fill="#F47B01"/>
<rect width="46.2569" height="46.2569" transform="matrix(-1 0 0 1 1504.11 348.94)" fill="#FE0003"/>
<rect width="46.2569" height="46.2569" transform="matrix(-1 0 0 1 1457.85 -21.1147)" fill="#FFD43F"/>
<rect width="46.2569" height="46.2569" transform="matrix(-1 0 0 1 1457.85 25.1421)" fill="#FF9A00"/>
<rect width="46.2569" height="46.2569" transform="matrix(-1 0 0 1 1457.85 71.3989)" fill="#F47B01"/>
<rect width="46.2569" height="46.2569" transform="matrix(-1 0 0 1 1457.85 117.656)" fill="#FE6600"/>
<rect width="46.2569" height="46.2569" transform="matrix(-1 0 0 1 1457.85 163.912)" fill="#FFD341"/>
<rect width="46.2569" height="46.2569" transform="matrix(-1 0 0 1 1457.85 210.169)" fill="#FE0003"/>
<rect width="46.2569" height="46.2569" transform="matrix(-1 0 0 1 1457.85 256.426)" fill="#FD4B01"/>
<rect width="46.2569" height="46.2569" transform="matrix(-1 0 0 1 1457.85 302.683)" fill="#FFD341"/>
<rect width="46.2569" height="46.2569" transform="matrix(-1 0 0 1 1457.85 348.94)" fill="#FF9A00"/>
<g style="mix-blend-mode:multiply">
<rect width="46.2569" height="46.2569" transform="matrix(-1 0 0 1 1735.39 441.519)" fill="#FF7701"/>
<rect width="46.2569" height="46.2569" transform="matrix(-1 0 0 1 1735.39 487.775)" fill="#FFD43F"/>
<rect width="46.2569" height="46.2569" transform="matrix(-1 0 0 1 1735.39 534.032)" fill="#FE0003"/>
<rect width="46.2569" height="46.2569" transform="matrix(-1 0 0 1 1689.13 441.583)" fill="#FFD341"/>
<rect width="46.2569" height="46.2569" transform="matrix(-1 0 0 1 1689.13 487.84)" fill="#FF9A00"/>
<rect width="46.2569" height="46.2569" transform="matrix(-1 0 0 1 1689.13 534.097)" fill="#F47B01"/>
<rect width="46.2569" height="46.2569" transform="matrix(-1 0 0 1 1642.88 441.583)" fill="white"/>
<rect width="46.2569" height="46.2569" transform="matrix(-1 0 0 1 1642.88 487.84)" fill="#FFD43F"/>
<rect width="46.2569" height="46.2569" transform="matrix(-1 0 0 1 1642.88 534.097)" fill="#F47B01"/>
<rect width="46.2569" height="46.2569" transform="matrix(-1 0 0 1 1596.62 441.583)" fill="#FF9A00"/>
<rect width="46.2569" height="46.2569" transform="matrix(-1 0 0 1 1596.62 487.84)" fill="#F9FFB3"/>
<rect width="46.2569" height="46.2569" transform="matrix(-1 0 0 1 1596.62 534.097)" fill="#FDFDFD"/>
<rect width="46.2569" height="46.2569" transform="matrix(-1 0 0 1 1550.36 487.84)" fill="#F9FFB3"/>
<rect width="46.2569" height="46.2569" transform="matrix(-1 0 0 1 1550.36 534.097)" fill="#FFD43F"/>
<rect width="46.2569" height="46.2569" transform="matrix(-1 0 0 1 1504.11 441.583)" fill="#FDFDFD"/>
<rect width="46.2569" height="46.2569" transform="matrix(-1 0 0 1 1504.11 487.84)" fill="#FDFDFD"/>
<rect width="46.2569" height="46.2569" transform="matrix(-1 0 0 1 1504.11 534.097)" fill="#F9FFB3"/>
<rect width="46.2569" height="46.2569" transform="matrix(-1 0 0 1 1920.42 441.519)" fill="#FD4B01"/>
<rect width="46.2569" height="46.2569" transform="matrix(-1 0 0 1 1920.42 487.775)" fill="#F47B01"/>
<rect width="46.2569" height="46.2569" transform="matrix(-1 0 0 1 1874.16 441.583)" fill="#F47B01"/>
<rect width="46.2569" height="46.2569" transform="matrix(-1 0 0 1 1874.16 534.097)" fill="#F47B01"/>
<rect width="46.2569" height="46.2569" transform="matrix(-1 0 0 1 1827.91 487.84)" fill="#F47B01"/>
<rect width="46.2569" height="46.2569" transform="matrix(-1 0 0 1 1781.65 441.583)" fill="#FFD43F"/>
<rect width="46.2569" height="46.2569" transform="matrix(-1 0 0 1 1781.65 487.84)" fill="#FF9A00"/>
<rect width="46.2569" height="46.2569" transform="matrix(-1 0 0 1 1781.65 534.097)" fill="#F47B01"/>
</g>
<g style="mix-blend-mode:multiply">
<rect width="46.2569" height="46.2569" transform="matrix(-1 0 0 1 1735.39 25.1421)" fill="#FF7701"/>
<rect width="46.2569" height="46.2569" transform="matrix(-1 0 0 1 1735.39 71.3989)" fill="#FFD43F"/>
<rect width="46.2569" height="46.2569" transform="matrix(-1 0 0 1 1735.39 117.656)" fill="#FE0003"/>
<rect width="46.2569" height="46.2569" transform="matrix(-1 0 0 1 1735.39 163.913)" fill="#FFD341"/>
<rect width="46.2569" height="46.2569" transform="matrix(-1 0 0 1 1735.39 210.169)" fill="#FD4B01"/>
<rect width="46.2569" height="46.2569" transform="matrix(-1 0 0 1 1735.39 256.426)" fill="#FFD43F"/>
<rect width="46.2569" height="46.2569" transform="matrix(-1 0 0 1 1735.39 302.683)" fill="#FFD341"/>
<rect width="46.2569" height="46.2569" transform="matrix(-1 0 0 1 1735.39 348.94)" fill="#F47B01"/>
<rect width="46.2569" height="46.2569" transform="matrix(-1 0 0 1 1735.39 395.197)" fill="#FFD43F"/>
<rect width="46.2569" height="46.2569" transform="matrix(-1 0 0 1 1689.13 25.2068)" fill="#FFD341"/>
<rect width="46.2569" height="46.2569" transform="matrix(-1 0 0 1 1689.13 71.4636)" fill="#FF9A00"/>
<rect width="46.2569" height="46.2569" transform="matrix(-1 0 0 1 1689.13 117.72)" fill="#F47B01"/>
<rect width="46.2569" height="46.2569" transform="matrix(-1 0 0 1 1689.13 163.978)" fill="white"/>
<rect width="46.2569" height="46.2569" transform="matrix(-1 0 0 1 1689.13 210.234)" fill="#FF9A00"/>
<rect width="46.2569" height="46.2569" transform="matrix(-1 0 0 1 1689.13 256.491)" fill="#F47B01"/>
<rect width="46.2569" height="46.2569" transform="matrix(-1 0 0 1 1689.13 302.748)" fill="#FFD43F"/>
<rect width="46.2569" height="46.2569" transform="matrix(-1 0 0 1 1689.13 349.005)" fill="#FE6600"/>
<rect width="46.2569" height="46.2569" transform="matrix(-1 0 0 1 1689.13 395.262)" fill="white"/>
<rect width="46.2569" height="46.2569" transform="matrix(-1 0 0 1 1642.88 25.2068)" fill="white"/>
<rect width="46.2569" height="46.2569" transform="matrix(-1 0 0 1 1642.88 71.4636)" fill="#FFD43F"/>
<rect width="46.2569" height="46.2569" transform="matrix(-1 0 0 1 1642.88 117.72)" fill="#F47B01"/>
<rect width="46.2569" height="46.2569" transform="matrix(-1 0 0 1 1642.88 163.978)" fill="#FF9A00"/>
<rect width="46.2569" height="46.2569" transform="matrix(-1 0 0 1 1642.88 210.234)" fill="#FFD43F"/>
<rect width="46.2569" height="46.2569" transform="matrix(-1 0 0 1 1642.88 256.491)" fill="#F47B01"/>
<rect width="46.2569" height="46.2569" transform="matrix(-1 0 0 1 1642.88 302.748)" fill="#FF9A00"/>
<rect width="46.2569" height="46.2569" transform="matrix(-1 0 0 1 1642.88 349.005)" fill="#FFD43F"/>
<rect width="46.2569" height="46.2569" transform="matrix(-1 0 0 1 1642.88 395.262)" fill="#FFD43F"/>
<rect width="46.2569" height="46.2569" transform="matrix(-1 0 0 1 1596.62 25.2068)" fill="#FF9A00"/>
<rect width="46.2569" height="46.2569" transform="matrix(-1 0 0 1 1596.62 71.4636)" fill="#F9FFB3"/>
<rect width="46.2569" height="46.2569" transform="matrix(-1 0 0 1 1596.62 117.72)" fill="#FDFDFD"/>
<rect width="46.2569" height="46.2569" transform="matrix(-1 0 0 1 1596.62 163.978)" fill="#FFD43F"/>
<rect width="46.2569" height="46.2569" transform="matrix(-1 0 0 1 1596.62 256.491)" fill="#FDFDFD"/>
<rect width="46.2569" height="46.2569" transform="matrix(-1 0 0 1 1596.62 302.748)" fill="#FFD43F"/>
<rect width="46.2569" height="46.2569" transform="matrix(-1 0 0 1 1596.62 349.005)" fill="#F9FFB3"/>
<rect width="46.2569" height="46.2569" transform="matrix(-1 0 0 1 1550.36 71.4636)" fill="#F9FFB3"/>
<rect width="46.2569" height="46.2569" transform="matrix(-1 0 0 1 1550.36 117.72)" fill="#FFD43F"/>
<rect width="46.2569" height="46.2569" transform="matrix(-1 0 0 1 1550.36 163.978)" fill="#F9FFB3"/>
<rect width="46.2569" height="46.2569" transform="matrix(-1 0 0 1 1550.36 210.234)" fill="#FDFDFD"/>
<rect width="46.2569" height="46.2569" transform="matrix(-1 0 0 1 1550.36 302.748)" fill="#FDFDFD"/>
<rect width="46.2569" height="46.2569" transform="matrix(-1 0 0 1 1550.36 349.005)" fill="#FFD43F"/>
<rect width="46.2569" height="46.2569" transform="matrix(-1 0 0 1 1550.36 395.262)" fill="#F9FFB3"/>
<rect width="46.2569" height="46.2569" transform="matrix(-1 0 0 1 1504.11 25.2068)" fill="#FDFDFD"/>
<rect width="46.2569" height="46.2569" transform="matrix(-1 0 0 1 1504.11 71.4636)" fill="#FDFDFD"/>
<rect width="46.2569" height="46.2569" transform="matrix(-1 0 0 1 1504.11 117.72)" fill="#F9FFB3"/>
<rect width="46.2569" height="46.2569" transform="matrix(-1 0 0 1 1504.11 163.978)" fill="#FDFDFD"/>
<rect width="46.2569" height="46.2569" transform="matrix(-1 0 0 1 1504.11 256.491)" fill="#F9FFB3"/>
<rect width="46.2569" height="46.2569" transform="matrix(-1 0 0 1 1504.11 302.748)" fill="#F9FFB3"/>
<rect width="46.2569" height="46.2569" transform="matrix(-1 0 0 1 1504.11 395.262)" fill="#FDFDFD"/>
<rect width="46.2569" height="46.2569" transform="matrix(-1 0 0 1 1920.42 25.1421)" fill="#FD4B01"/>
<rect width="46.2569" height="46.2569" transform="matrix(-1 0 0 1 1920.42 71.3989)" fill="#F47B01"/>
<rect width="46.2569" height="46.2569" transform="matrix(-1 0 0 1 1920.42 117.656)" fill="#FE0003"/>
<rect width="46.2569" height="46.2569" transform="matrix(-1 0 0 1 1920.42 302.812)" fill="#FE0003"/>
<rect width="46.2569" height="46.2569" transform="matrix(-1 0 0 1 1920.42 348.875)" fill="#F47B01"/>
<rect width="46.2569" height="46.2569" transform="matrix(-1 0 0 1 1874.16 25.2068)" fill="#F47B01"/>
<rect width="46.2569" height="46.2569" transform="matrix(-1 0 0 1 1874.16 71.4636)" fill="#F47B01"/>
<rect width="46.2569" height="46.2569" transform="matrix(-1 0 0 1 1874.16 163.978)" fill="#FE0003"/>
<rect width="46.2569" height="46.2569" transform="matrix(-1 0 0 1 1874.16 256.491)" fill="#F47B01"/>
<rect width="46.2569" height="46.2569" transform="matrix(-1 0 0 1 1920.42 210.169)" fill="#F47B01"/>
<rect width="46.2569" height="46.2569" transform="matrix(-1 0 0 1 1874.16 302.748)" fill="#FE6600"/>
<rect width="46.2569" height="46.2569" transform="matrix(-1 0 0 1 1827.91 71.4636)" fill="#F47B01"/>
<rect width="46.2569" height="46.2569" transform="matrix(-1 0 0 1 1827.91 117.72)" fill="#FE6600"/>
<rect width="46.2569" height="46.2569" transform="matrix(-1 0 0 1 1827.91 163.978)" fill="#FD4B01"/>
<rect width="46.2569" height="46.2569" transform="matrix(-1 0 0 1 1827.91 210.234)" fill="#F47B01"/>
<rect width="46.2569" height="46.2569" transform="matrix(-1 0 0 1 1827.91 256.491)" fill="#FFD43F"/>
<rect width="46.2569" height="46.2569" transform="matrix(-1 0 0 1 1827.91 349.005)" fill="#F47B01"/>
<rect width="46.2569" height="46.2569" transform="matrix(-1 0 0 1 1827.91 395.262)" fill="#FE0003"/>
<rect width="46.2569" height="46.2569" transform="matrix(-1 0 0 1 1781.65 25.2068)" fill="#FFD43F"/>
<rect width="46.2569" height="46.2569" transform="matrix(-1 0 0 1 1781.65 71.4636)" fill="#FF9A00"/>
<rect width="46.2569" height="46.2569" transform="matrix(-1 0 0 1 1781.65 117.72)" fill="#F47B01"/>
<rect width="46.2569" height="46.2569" transform="matrix(-1 0 0 1 1781.65 163.978)" fill="#FE6600"/>
<rect width="46.2569" height="46.2569" transform="matrix(-1 0 0 1 1781.65 210.234)" fill="#FFD341"/>
<rect width="46.2569" height="46.2569" transform="matrix(-1 0 0 1 1781.65 256.491)" fill="#FE0003"/>
<rect width="46.2569" height="46.2569" transform="matrix(-1 0 0 1 1781.65 302.748)" fill="#FD4B01"/>
<rect width="46.2569" height="46.2569" transform="matrix(-1 0 0 1 1781.65 349.005)" fill="#FFD341"/>
<rect width="46.2569" height="46.2569" transform="matrix(-1 0 0 1 1781.65 395.262)" fill="#FF9A00"/>
</g>
<rect x="975.778" y="-0.00610352" width="944.641" height="353.171" fill="url(#paint0_linear_127_377)"/>
</g>
<defs>
<linearGradient id="paint0_linear_127_377" x1="1448.1" y1="-0.00610352" x2="1448.1" y2="353.165" gradientUnits="userSpaceOnUse">
<stop stop-color="white"/>
<stop offset="1" stop-color="white" stop-opacity="0"/>
</linearGradient>
<clipPath id="clip0_127_377">
<rect width="1920" height="580" fill="white"/>
</clipPath>
</defs>
</svg>
